<?xml version="1.0" encoding="utf-8"?>
<svg xmlns="http://www.w3.org/2000/svg" xmlns:xlink="http://www.w3.org/1999/xlink" width="600" height="400" viewBox="0 0 2400 1600">
<defs>
  <clipPath id="clip200">
    <rect x="0" y="0" width="2400" height="1600"/>
  </clipPath>
</defs>
<path clip-path="url(#clip200)" d="
M0 1600 L2400 1600 L2400 0 L0 0  Z
  " fill="#ffffff" fill-rule="evenodd" fill-opacity="1"/>
<defs>
  <clipPath id="clip201">
    <rect x="480" y="0" width="1681" height="1600"/>
  </clipPath>
</defs>
<defs>
  <clipPath id="clip202">
    <rect x="238" y="123" width="2116" height="1301"/>
  </clipPath>
</defs>
<path clip-path="url(#clip202)" d="
M238.13 1346.4 L238.13 353.805 L1012.14 123.472 L2352.76 200.25 L2352.76 1192.85 L1578.75 1423.18 L238.13 1346.4  Z
  " fill="#ffffff" fill-rule="evenodd" fill-opacity="1"/>
<polyline clip-path="url(#clip202)" style="stroke:#000000; stroke-width:2; stroke-opacity:0.1; fill:none" points="
  468.491,1359.6 1242.5,1129.26 
  "/>
<polyline clip-path="url(#clip202)" style="stroke:#000000; stroke-width:2; stroke-opacity:0.1; fill:none" points="
  1242.5,1129.26 1242.5,136.665 
  "/>
<polyline clip-path="url(#clip202)" style="stroke:#000000; stroke-width:2; stroke-opacity:0.1; fill:none" points="
  733.352,1374.76 1507.36,1144.43 
  "/>
<polyline clip-path="url(#clip202)" style="stroke:#000000; stroke-width:2; stroke-opacity:0.1; fill:none" points="
  1507.36,1144.43 1507.36,151.834 
  "/>
<polyline clip-path="url(#clip202)" style="stroke:#000000; stroke-width:2; stroke-opacity:0.1; fill:none" points="
  998.213,1389.93 1772.22,1159.6 
  "/>
<polyline clip-path="url(#clip202)" style="stroke:#000000; stroke-width:2; stroke-opacity:0.1; fill:none" points="
  1772.22,1159.6 1772.22,167.002 
  "/>
<polyline clip-path="url(#clip202)" style="stroke:#000000; stroke-width:2; stroke-opacity:0.1; fill:none" points="
  1263.07,1405.1 2037.08,1174.77 
  "/>
<polyline clip-path="url(#clip202)" style="stroke:#000000; stroke-width:2; stroke-opacity:0.1; fill:none" points="
  2037.08,1174.77 2037.08,182.171 
  "/>
<polyline clip-path="url(#clip202)" style="stroke:#000000; stroke-width:2; stroke-opacity:0.1; fill:none" points="
  1527.94,1420.27 2301.94,1189.94 
  "/>
<polyline clip-path="url(#clip202)" style="stroke:#000000; stroke-width:2; stroke-opacity:0.1; fill:none" points="
  2301.94,1189.94 2301.94,197.34 
  "/>
<polyline clip-path="url(#clip200)" style="stroke:#000000; stroke-width:4; stroke-opacity:1; fill:none" points="
  238.13,1346.4 1578.75,1423.18 
  "/>
<polyline clip-path="url(#clip200)" style="stroke:#000000; stroke-width:4; stroke-opacity:1; fill:none" points="
  468.491,1359.6 477.779,1356.83 
  "/>
<polyline clip-path="url(#clip200)" style="stroke:#000000; stroke-width:4; stroke-opacity:1; fill:none" points="
  733.352,1374.76 742.64,1372 
  "/>
<polyline clip-path="url(#clip200)" style="stroke:#000000; stroke-width:4; stroke-opacity:1; fill:none" points="
  998.213,1389.93 1007.5,1387.17 
  "/>
<polyline clip-path="url(#clip200)" style="stroke:#000000; stroke-width:4; stroke-opacity:1; fill:none" points="
  1263.07,1405.1 1272.36,1402.34 
  "/>
<polyline clip-path="url(#clip200)" style="stroke:#000000; stroke-width:4; stroke-opacity:1; fill:none" points="
  1527.94,1420.27 1537.22,1417.51 
  "/>
<path clip-path="url(#clip200)" d="M 0 0 M426.806 1393.59 Q423.195 1393.59 421.366 1397.15 Q419.56 1400.69 419.56 1407.82 Q419.56 1414.93 421.366 1418.49 Q423.195 1422.03 426.806 1422.03 Q430.44 1422.03 432.246 1418.49 Q434.074 1414.93 434.074 1407.82 Q434.074 1400.69 432.246 1397.15 Q430.44 1393.59 426.806 1393.59 M426.806 1389.88 Q432.616 1389.88 435.672 1394.49 Q438.75 1399.07 438.75 1407.82 Q438.75 1416.55 435.672 1421.16 Q432.616 1425.74 426.806 1425.74 Q420.996 1425.74 417.917 1421.16 Q414.861 1416.55 414.861 1407.82 Q414.861 1399.07 417.917 1394.49 Q420.996 1389.88 426.806 1389.88 Z" fill="#000000" fill-rule="evenodd" fill-opacity="1" /><path clip-path="url(#clip200)" d="M 0 0 M443.82 1419.19 L448.704 1419.19 L448.704 1425.07 L443.82 1425.07 L443.82 1419.19 Z" fill="#000000" fill-rule="evenodd" fill-opacity="1" /><path clip-path="url(#clip200)" d="M 0 0 M457.801 1421.13 L474.12 1421.13 L474.12 1425.07 L452.176 1425.07 L452.176 1421.13 Q454.838 1418.38 459.421 1413.75 Q464.028 1409.09 465.208 1407.75 Q467.454 1405.23 468.333 1403.49 Q469.236 1401.73 469.236 1400.04 Q469.236 1397.29 467.292 1395.55 Q465.37 1393.82 462.269 1393.82 Q460.07 1393.82 457.616 1394.58 Q455.185 1395.34 452.408 1396.9 L452.408 1392.17 Q455.232 1391.04 457.685 1390.46 Q460.139 1389.88 462.176 1389.88 Q467.546 1389.88 470.741 1392.57 Q473.935 1395.25 473.935 1399.74 Q473.935 1401.87 473.125 1403.79 Q472.338 1405.69 470.232 1408.28 Q469.653 1408.96 466.551 1412.17 Q463.449 1415.37 457.801 1421.13 Z" fill="#000000" fill-rule="evenodd" fill-opacity="1" /><path clip-path="url(#clip200)" d="M 0 0 M690.625 1408.75 Q687.014 1408.75 685.186 1412.32 Q683.38 1415.86 683.38 1422.99 Q683.38 1430.1 685.186 1433.66 Q687.014 1437.2 690.625 1437.2 Q694.26 1437.2 696.065 1433.66 Q697.894 1430.1 697.894 1422.99 Q697.894 1415.86 696.065 1412.32 Q694.26 1408.75 690.625 1408.75 M690.625 1405.05 Q696.435 1405.05 699.491 1409.66 Q702.57 1414.24 702.57 1422.99 Q702.57 1431.72 699.491 1436.32 Q696.435 1440.91 690.625 1440.91 Q684.815 1440.91 681.736 1436.32 Q678.681 1431.72 678.681 1422.99 Q678.681 1414.24 681.736 1409.66 Q684.815 1405.05 690.625 1405.05 Z" fill="#000000" fill-rule="evenodd" fill-opacity="1" /><path clip-path="url(#clip200)" d="M 0 0 M707.639 1434.36 L712.523 1434.36 L712.523 1440.24 L707.639 1440.24 L707.639 1434.36 Z" fill="#000000" fill-rule="evenodd" fill-opacity="1" /><path clip-path="url(#clip200)" d="M 0 0 M730.44 1409.75 L718.634 1428.2 L730.44 1428.2 L730.44 1409.75 M729.213 1405.68 L735.093 1405.68 L735.093 1428.2 L740.023 1428.2 L740.023 1432.09 L735.093 1432.09 L735.093 1440.24 L730.44 1440.24 L730.44 1432.09 L714.838 1432.09 L714.838 1427.57 L729.213 1405.68 Z" fill="#000000" fill-rule="evenodd" fill-opacity="1" /><path clip-path="url(#clip200)" d="M 0 0 M955.648 1423.92 Q952.037 1423.92 950.209 1427.49 Q948.403 1431.03 948.403 1438.16 Q948.403 1445.27 950.209 1448.83 Q952.037 1452.37 955.648 1452.37 Q959.283 1452.37 961.088 1448.83 Q962.917 1445.27 962.917 1438.16 Q962.917 1431.03 961.088 1427.49 Q959.283 1423.92 955.648 1423.92 M955.648 1420.22 Q961.459 1420.22 964.514 1424.83 Q967.593 1429.41 967.593 1438.16 Q967.593 1446.89 964.514 1451.49 Q961.459 1456.08 955.648 1456.08 Q949.838 1456.08 946.76 1451.49 Q943.704 1446.89 943.704 1438.16 Q943.704 1429.41 946.76 1424.83 Q949.838 1420.22 955.648 1420.22 Z" fill="#000000" fill-rule="evenodd" fill-opacity="1" /><path clip-path="url(#clip200)" d="M 0 0 M972.662 1449.52 L977.547 1449.52 L977.547 1455.4 L972.662 1455.4 L972.662 1449.52 Z" fill="#000000" fill-rule="evenodd" fill-opacity="1" /><path clip-path="url(#clip200)" d="M 0 0 M993.195 1436.26 Q990.046 1436.26 988.195 1438.41 Q986.366 1440.57 986.366 1444.32 Q986.366 1448.04 988.195 1450.22 Q990.046 1452.37 993.195 1452.37 Q996.343 1452.37 998.171 1450.22 Q1000.02 1448.04 1000.02 1444.32 Q1000.02 1440.57 998.171 1438.41 Q996.343 1436.26 993.195 1436.26 M1002.48 1421.61 L1002.48 1425.87 Q1000.72 1425.03 998.912 1424.59 Q997.13 1424.15 995.37 1424.15 Q990.741 1424.15 988.287 1427.28 Q985.857 1430.4 985.509 1436.72 Q986.875 1434.71 988.935 1433.65 Q990.996 1432.56 993.472 1432.56 Q998.681 1432.56 1001.69 1435.73 Q1004.72 1438.88 1004.72 1444.32 Q1004.72 1449.64 1001.57 1452.86 Q998.426 1456.08 993.195 1456.08 Q987.199 1456.08 984.028 1451.49 Q980.857 1446.89 980.857 1438.16 Q980.857 1429.96 984.746 1425.1 Q988.634 1420.22 995.185 1420.22 Q996.945 1420.22 998.727 1420.57 Q1000.53 1420.91 1002.48 1421.61 Z" fill="#000000" fill-rule="evenodd" fill-opacity="1" /><path clip-path="url(#clip200)" d="M 0 0 M1220.64 1439.09 Q1217.03 1439.09 1215.2 1442.66 Q1213.39 1446.2 1213.39 1453.33 Q1213.39 1460.43 1215.2 1464 Q1217.03 1467.54 1220.64 1467.54 Q1224.27 1467.54 1226.08 1464 Q1227.91 1460.43 1227.91 1453.33 Q1227.91 1446.2 1226.08 1442.66 Q1224.27 1439.09 1220.64 1439.09 M1220.64 1435.39 Q1226.45 1435.39 1229.5 1439.99 Q1232.58 1444.58 1232.58 1453.33 Q1232.58 1462.05 1229.5 1466.66 Q1226.45 1471.24 1220.64 1471.24 Q1214.83 1471.24 1211.75 1466.66 Q1208.69 1462.05 1208.69 1453.33 Q1208.69 1444.58 1211.75 1439.99 Q1214.83 1435.39 1220.64 1435.39 Z" fill="#000000" fill-rule="evenodd" fill-opacity="1" /><path clip-path="url(#clip200)" d="M 0 0 M1237.65 1464.69 L1242.53 1464.69 L1242.53 1470.57 L1237.65 1470.57 L1237.65 1464.69 Z" fill="#000000" fill-rule="evenodd" fill-opacity="1" /><path clip-path="url(#clip200)" d="M 0 0 M1257.6 1454.16 Q1254.27 1454.16 1252.35 1455.94 Q1250.45 1457.73 1250.45 1460.85 Q1250.45 1463.98 1252.35 1465.76 Q1254.27 1467.54 1257.6 1467.54 Q1260.94 1467.54 1262.86 1465.76 Q1264.78 1463.95 1264.78 1460.85 Q1264.78 1457.73 1262.86 1455.94 Q1260.96 1454.16 1257.6 1454.16 M1252.93 1452.17 Q1249.92 1451.43 1248.23 1449.37 Q1246.56 1447.31 1246.56 1444.35 Q1246.56 1440.2 1249.5 1437.8 Q1252.47 1435.39 1257.6 1435.39 Q1262.77 1435.39 1265.71 1437.8 Q1268.65 1440.2 1268.65 1444.35 Q1268.65 1447.31 1266.96 1449.37 Q1265.29 1451.43 1262.3 1452.17 Q1265.68 1452.96 1267.56 1455.25 Q1269.46 1457.54 1269.46 1460.85 Q1269.46 1465.87 1266.38 1468.56 Q1263.32 1471.24 1257.6 1471.24 Q1251.89 1471.24 1248.81 1468.56 Q1245.75 1465.87 1245.75 1460.85 Q1245.75 1457.54 1247.65 1455.25 Q1249.55 1452.96 1252.93 1452.17 M1251.22 1444.79 Q1251.22 1447.47 1252.88 1448.98 Q1254.57 1450.48 1257.6 1450.48 Q1260.61 1450.48 1262.3 1448.98 Q1264.02 1447.47 1264.02 1444.79 Q1264.02 1442.1 1262.3 1440.6 Q1260.61 1439.09 1257.6 1439.09 Q1254.57 1439.09 1252.88 1440.6 Q1251.22 1442.1 1251.22 1444.79 Z" fill="#000000" fill-rule="evenodd" fill-opacity="1" /><path clip-path="url(#clip200)" d="M 0 0 M1475.83 1481.81 L1483.47 1481.81 L1483.47 1455.44 L1475.16 1457.11 L1475.16 1452.85 L1483.43 1451.18 L1488.1 1451.18 L1488.1 1481.81 L1495.74 1481.81 L1495.74 1485.74 L1475.83 1485.74 L1475.83 1481.81 Z" fill="#000000" fill-rule="evenodd" fill-opacity="1" /><path clip-path="url(#clip200)" d="M 0 0 M1500.81 1479.86 L1505.69 1479.86 L1505.69 1485.74 L1500.81 1485.74 L1500.81 1479.86 Z" fill="#000000" fill-rule="evenodd" fill-opacity="1" /><path clip-path="url(#clip200)" d="M 0 0 M1520.76 1454.26 Q1517.15 1454.26 1515.32 1457.83 Q1513.52 1461.37 1513.52 1468.5 Q1513.52 1475.6 1515.32 1479.17 Q1517.15 1482.71 1520.76 1482.71 Q1524.4 1482.71 1526.2 1479.17 Q1528.03 1475.6 1528.03 1468.5 Q1528.03 1461.37 1526.2 1457.83 Q1524.4 1454.26 1520.76 1454.26 M1520.76 1450.56 Q1526.57 1450.56 1529.63 1455.16 Q1532.71 1459.75 1532.71 1468.5 Q1532.71 1477.22 1529.63 1481.83 Q1526.57 1486.41 1520.76 1486.41 Q1514.95 1486.41 1511.88 1481.83 Q1508.82 1477.22 1508.82 1468.5 Q1508.82 1459.75 1511.88 1455.16 Q1514.95 1450.56 1520.76 1450.56 Z" fill="#000000" fill-rule="evenodd" fill-opacity="1" /><path clip-path="url(#clip200)" d="M 0 0 M683.866 1522.7 L683.866 1559.65 L691.632 1559.65 Q701.467 1559.65 706.019 1555.2 Q710.602 1550.74 710.602 1541.13 Q710.602 1531.58 706.019 1527.15 Q701.467 1522.7 691.632 1522.7 L683.866 1522.7 M677.437 1517.42 L690.646 1517.42 Q704.459 1517.42 710.92 1523.18 Q717.382 1528.91 717.382 1541.13 Q717.382 1553.41 710.889 1559.17 Q704.396 1564.94 690.646 1564.94 L677.437 1564.94 L677.437 1517.42 Z" fill="#000000" fill-rule="evenodd" fill-opacity="1" /><path clip-path="url(#clip200)" d="M 0 0 M754.016 1545.65 L754.016 1548.51 L727.089 1548.51 Q727.471 1554.56 730.718 1557.74 Q733.996 1560.89 739.821 1560.89 Q743.195 1560.89 746.346 1560.07 Q749.528 1559.24 752.648 1557.58 L752.648 1563.12 Q749.497 1564.46 746.186 1565.16 Q742.876 1565.86 739.471 1565.86 Q730.941 1565.86 725.943 1560.89 Q720.978 1555.93 720.978 1547.46 Q720.978 1538.71 725.689 1533.58 Q730.431 1528.43 738.452 1528.43 Q745.645 1528.43 749.815 1533.07 Q754.016 1537.69 754.016 1545.65 M748.16 1543.93 Q748.096 1539.12 745.454 1536.26 Q742.844 1533.39 738.516 1533.39 Q733.614 1533.39 730.654 1536.16 Q727.726 1538.93 727.28 1543.96 L748.16 1543.93 Z" fill="#000000" fill-rule="evenodd" fill-opacity="1" /><path clip-path="url(#clip200)" d="M 0 0 M789.792 1543.42 L789.792 1564.94 L783.935 1564.94 L783.935 1543.61 Q783.935 1538.55 781.962 1536.03 Q779.988 1533.52 776.042 1533.52 Q771.299 1533.52 768.562 1536.54 Q765.825 1539.57 765.825 1544.79 L765.825 1564.94 L759.936 1564.94 L759.936 1529.29 L765.825 1529.29 L765.825 1534.83 Q767.925 1531.61 770.758 1530.02 Q773.623 1528.43 777.347 1528.43 Q783.489 1528.43 786.64 1532.25 Q789.792 1536.03 789.792 1543.42 Z" fill="#000000" fill-rule="evenodd" fill-opacity="1" /><path clip-path="url(#clip200)" d="M 0 0 M818.66 1530.34 L818.66 1535.88 Q816.177 1534.6 813.504 1533.97 Q810.83 1533.33 807.966 1533.33 Q803.605 1533.33 801.409 1534.67 Q799.245 1536 799.245 1538.68 Q799.245 1540.71 800.804 1541.89 Q802.364 1543.04 807.074 1544.09 L809.08 1544.53 Q815.318 1545.87 817.928 1548.32 Q820.57 1550.74 820.57 1555.1 Q820.57 1560.07 816.623 1562.96 Q812.708 1565.86 805.833 1565.86 Q802.969 1565.86 799.849 1565.29 Q796.762 1564.74 793.324 1563.63 L793.324 1557.58 Q796.571 1559.27 799.722 1560.13 Q802.873 1560.96 805.96 1560.96 Q810.098 1560.96 812.326 1559.56 Q814.554 1558.12 814.554 1555.55 Q814.554 1553.16 812.931 1551.89 Q811.339 1550.61 805.897 1549.43 L803.86 1548.96 Q798.417 1547.81 795.998 1545.46 Q793.579 1543.07 793.579 1538.93 Q793.579 1533.9 797.144 1531.16 Q800.709 1528.43 807.265 1528.43 Q810.512 1528.43 813.376 1528.91 Q816.241 1529.38 818.66 1530.34 Z" fill="#000000" fill-rule="evenodd" fill-opacity="1" /><path clip-path="url(#clip200)" d="M 0 0 M826.713 1529.29 L832.569 1529.29 L832.569 1564.94 L826.713 1564.94 L826.713 1529.29 M826.713 1515.41 L832.569 1515.41 L832.569 1522.83 L826.713 1522.83 L826.713 1515.41 Z" fill="#000000" fill-rule="evenodd" fill-opacity="1" /><path clip-path="url(#clip200)" d="M 0 0 M844.505 1519.17 L844.505 1529.29 L856.568 1529.29 L856.568 1533.84 L844.505 1533.84 L844.505 1553.19 Q844.505 1557.55 845.682 1558.79 Q846.892 1560.03 850.552 1560.03 L856.568 1560.03 L856.568 1564.94 L850.552 1564.94 Q843.773 1564.94 841.195 1562.42 Q838.616 1559.87 838.616 1553.19 L838.616 1533.84 L834.32 1533.84 L834.32 1529.29 L838.616 1529.29 L838.616 1519.17 L844.505 1519.17 Z" fill="#000000" fill-rule="evenodd" fill-opacity="1" /><path clip-path="url(#clip200)" d="M 0 0 M877.543 1568.25 Q875.06 1574.61 872.705 1576.55 Q870.35 1578.49 866.403 1578.49 L861.724 1578.49 L861.724 1573.59 L865.161 1573.59 Q867.58 1573.59 868.917 1572.45 Q870.254 1571.3 871.877 1567.04 L872.928 1564.36 L858.509 1529.29 L864.716 1529.29 L875.856 1557.17 L886.996 1529.29 L893.202 1529.29 L877.543 1568.25 Z" fill="#000000" fill-rule="evenodd" fill-opacity="1" /><polyline clip-path="url(#clip202)" style="stroke:#000000; stroke-width:2; stroke-opacity:0.1; fill:none" points="
  1708.09,1384.69 367.469,1307.91 
  "/>
<polyline clip-path="url(#clip202)" style="stroke:#000000; stroke-width:2; stroke-opacity:0.1; fill:none" points="
  367.469,1307.91 367.469,315.316 
  "/>
<polyline clip-path="url(#clip202)" style="stroke:#000000; stroke-width:2; stroke-opacity:0.1; fill:none" points="
  1853.08,1341.54 512.465,1264.76 
  "/>
<polyline clip-path="url(#clip202)" style="stroke:#000000; stroke-width:2; stroke-opacity:0.1; fill:none" points="
  512.465,1264.76 512.465,272.167 
  "/>
<polyline clip-path="url(#clip202)" style="stroke:#000000; stroke-width:2; stroke-opacity:0.1; fill:none" points="
  1998.08,1298.39 657.46,1221.62 
  "/>
<polyline clip-path="url(#clip202)" style="stroke:#000000; stroke-width:2; stroke-opacity:0.1; fill:none" points="
  657.46,1221.62 657.46,229.019 
  "/>
<polyline clip-path="url(#clip202)" style="stroke:#000000; stroke-width:2; stroke-opacity:0.1; fill:none" points="
  2143.07,1255.25 802.455,1178.47 
  "/>
<polyline clip-path="url(#clip202)" style="stroke:#000000; stroke-width:2; stroke-opacity:0.1; fill:none" points="
  802.455,1178.47 802.455,185.87 
  "/>
<polyline clip-path="url(#clip202)" style="stroke:#000000; stroke-width:2; stroke-opacity:0.1; fill:none" points="
  2288.07,1212.1 947.451,1135.32 
  "/>
<polyline clip-path="url(#clip202)" style="stroke:#000000; stroke-width:2; stroke-opacity:0.1; fill:none" points="
  947.451,1135.32 947.451,142.722 
  "/>
<polyline clip-path="url(#clip200)" style="stroke:#000000; stroke-width:4; stroke-opacity:1; fill:none" points="
  1578.75,1423.18 2352.76,1192.85 
  "/>
<polyline clip-path="url(#clip200)" style="stroke:#000000; stroke-width:4; stroke-opacity:1; fill:none" points="
  1708.09,1384.69 1692,1383.77 
  "/>
<polyline clip-path="url(#clip200)" style="stroke:#000000; stroke-width:4; stroke-opacity:1; fill:none" points="
  1853.08,1341.54 1837,1340.62 
  "/>
<polyline clip-path="url(#clip200)" style="stroke:#000000; stroke-width:4; stroke-opacity:1; fill:none" points="
  1998.08,1298.39 1981.99,1297.47 
  "/>
<polyline clip-path="url(#clip200)" style="stroke:#000000; stroke-width:4; stroke-opacity:1; fill:none" points="
  2143.07,1255.25 2126.99,1254.32 
  "/>
<polyline clip-path="url(#clip200)" style="stroke:#000000; stroke-width:4; stroke-opacity:1; fill:none" points="
  2288.07,1212.1 2271.98,1211.18 
  "/>
<path clip-path="url(#clip200)" d="M 0 0 M1700.18 1446.23 L1716.5 1446.23 L1716.5 1450.16 L1694.55 1450.16 L1694.55 1446.23 Q1697.22 1443.47 1701.8 1438.84 Q1706.41 1434.19 1707.59 1432.85 Q1709.83 1430.32 1710.71 1428.59 Q1711.61 1426.83 1711.61 1425.14 Q1711.61 1422.38 1709.67 1420.65 Q1707.75 1418.91 1704.65 1418.91 Q1702.45 1418.91 1699.99 1419.68 Q1697.56 1420.44 1694.79 1421.99 L1694.79 1417.27 Q1697.61 1416.13 1700.06 1415.56 Q1702.52 1414.98 1704.55 1414.98 Q1709.92 1414.98 1713.12 1417.66 Q1716.31 1420.35 1716.31 1424.84 Q1716.31 1426.97 1715.5 1428.89 Q1714.72 1430.79 1712.61 1433.38 Q1712.03 1434.05 1708.93 1437.27 Q1705.83 1440.46 1700.18 1446.23 Z" fill="#000000" fill-rule="evenodd" fill-opacity="1" /><path clip-path="url(#clip200)" d="M 0 0 M1720.39 1415.6 L1742.61 1415.6 L1742.61 1417.59 L1730.06 1450.16 L1725.18 1450.16 L1736.98 1419.54 L1720.39 1419.54 L1720.39 1415.6 Z" fill="#000000" fill-rule="evenodd" fill-opacity="1" /><path clip-path="url(#clip200)" d="M 0 0 M1757.68 1418.68 Q1754.07 1418.68 1752.24 1422.25 Q1750.43 1425.79 1750.43 1432.92 Q1750.43 1440.02 1752.24 1443.59 Q1754.07 1447.13 1757.68 1447.13 Q1761.31 1447.13 1763.12 1443.59 Q1764.95 1440.02 1764.95 1432.92 Q1764.95 1425.79 1763.12 1422.25 Q1761.31 1418.68 1757.68 1418.68 M1757.68 1414.98 Q1763.49 1414.98 1766.54 1419.58 Q1769.62 1424.17 1769.62 1432.92 Q1769.62 1441.64 1766.54 1446.25 Q1763.49 1450.83 1757.68 1450.83 Q1751.87 1450.83 1748.79 1446.25 Q1745.73 1441.64 1745.73 1432.92 Q1745.73 1424.17 1748.79 1419.58 Q1751.87 1414.98 1757.68 1414.98 Z" fill="#000000" fill-rule="evenodd" fill-opacity="1" /><path clip-path="url(#clip200)" d="M 0 0 M1844.77 1403.08 L1861.09 1403.08 L1861.09 1407.01 L1839.14 1407.01 L1839.14 1403.08 Q1841.81 1400.32 1846.39 1395.69 Q1851 1391.04 1852.18 1389.7 Q1854.42 1387.18 1855.3 1385.44 Q1856.2 1383.68 1856.2 1381.99 Q1856.2 1379.24 1854.26 1377.5 Q1852.34 1375.76 1849.24 1375.76 Q1847.04 1375.76 1844.58 1376.53 Q1842.15 1377.29 1839.38 1378.84 L1839.38 1374.12 Q1842.2 1372.99 1844.65 1372.41 Q1847.11 1371.83 1849.14 1371.83 Q1854.51 1371.83 1857.71 1374.51 Q1860.9 1377.2 1860.9 1381.69 Q1860.9 1383.82 1860.09 1385.74 Q1859.31 1387.64 1857.2 1390.23 Q1856.62 1390.9 1853.52 1394.12 Q1850.42 1397.31 1844.77 1403.08 Z" fill="#000000" fill-rule="evenodd" fill-opacity="1" /><path clip-path="url(#clip200)" d="M 0 0 M1876.16 1390.6 Q1872.82 1390.6 1870.9 1392.38 Q1869.01 1394.17 1869.01 1397.29 Q1869.01 1400.42 1870.9 1402.2 Q1872.82 1403.98 1876.16 1403.98 Q1879.49 1403.98 1881.41 1402.2 Q1883.33 1400.39 1883.33 1397.29 Q1883.33 1394.17 1881.41 1392.38 Q1879.51 1390.6 1876.16 1390.6 M1871.48 1388.61 Q1868.47 1387.87 1866.78 1385.81 Q1865.12 1383.75 1865.12 1380.79 Q1865.12 1376.64 1868.06 1374.24 Q1871.02 1371.83 1876.16 1371.83 Q1881.32 1371.83 1884.26 1374.24 Q1887.2 1376.64 1887.2 1380.79 Q1887.2 1383.75 1885.51 1385.81 Q1883.84 1387.87 1880.86 1388.61 Q1884.24 1389.4 1886.11 1391.69 Q1888.01 1393.98 1888.01 1397.29 Q1888.01 1402.31 1884.93 1405 Q1881.88 1407.69 1876.16 1407.69 Q1870.44 1407.69 1867.36 1405 Q1864.31 1402.31 1864.31 1397.29 Q1864.31 1393.98 1866.2 1391.69 Q1868.1 1389.4 1871.48 1388.61 M1869.77 1381.23 Q1869.77 1383.91 1871.44 1385.42 Q1873.13 1386.92 1876.16 1386.92 Q1879.17 1386.92 1880.86 1385.42 Q1882.57 1383.91 1882.57 1381.23 Q1882.57 1378.54 1880.86 1377.04 Q1879.17 1375.53 1876.16 1375.53 Q1873.13 1375.53 1871.44 1377.04 Q1869.77 1378.54 1869.77 1381.23 Z" fill="#000000" fill-rule="evenodd" fill-opacity="1" /><path clip-path="url(#clip200)" d="M 0 0 M1903.08 1375.53 Q1899.47 1375.53 1897.64 1379.1 Q1895.83 1382.64 1895.83 1389.77 Q1895.83 1396.88 1897.64 1400.44 Q1899.47 1403.98 1903.08 1403.98 Q1906.71 1403.98 1908.52 1400.44 Q1910.35 1396.88 1910.35 1389.77 Q1910.35 1382.64 1908.52 1379.1 Q1906.71 1375.53 1903.08 1375.53 M1903.08 1371.83 Q1908.89 1371.83 1911.94 1376.44 Q1915.02 1381.02 1915.02 1389.77 Q1915.02 1398.5 1911.94 1403.1 Q1908.89 1407.69 1903.08 1407.69 Q1897.27 1407.69 1894.19 1403.1 Q1891.13 1398.5 1891.13 1389.77 Q1891.13 1381.02 1894.19 1376.44 Q1897.27 1371.83 1903.08 1371.83 Z" fill="#000000" fill-rule="evenodd" fill-opacity="1" /><path clip-path="url(#clip200)" d="M 0 0 M1989.81 1359.93 L2006.13 1359.93 L2006.13 1363.87 L1984.19 1363.87 L1984.19 1359.93 Q1986.85 1357.18 1991.43 1352.55 Q1996.04 1347.89 1997.22 1346.55 Q1999.46 1344.03 2000.34 1342.29 Q2001.25 1340.53 2001.25 1338.84 Q2001.25 1336.09 1999.3 1334.35 Q1997.38 1332.62 1994.28 1332.62 Q1992.08 1332.62 1989.63 1333.38 Q1987.19 1334.14 1984.42 1335.69 L1984.42 1330.97 Q1987.24 1329.84 1989.69 1329.26 Q1992.15 1328.68 1994.19 1328.68 Q1999.56 1328.68 2002.75 1331.37 Q2005.94 1334.05 2005.94 1338.54 Q2005.94 1340.67 2005.13 1342.59 Q2004.35 1344.49 2002.24 1347.08 Q2001.66 1347.75 1998.56 1350.97 Q1995.46 1354.17 1989.81 1359.93 Z" fill="#000000" fill-rule="evenodd" fill-opacity="1" /><path clip-path="url(#clip200)" d="M 0 0 M2011.34 1363.15 L2011.34 1358.89 Q2013.1 1359.72 2014.9 1360.16 Q2016.71 1360.6 2018.44 1360.6 Q2023.07 1360.6 2025.5 1357.5 Q2027.96 1354.37 2028.31 1348.03 Q2026.96 1350.02 2024.9 1351.09 Q2022.84 1352.15 2020.34 1352.15 Q2015.16 1352.15 2012.13 1349.03 Q2009.12 1345.88 2009.12 1340.44 Q2009.12 1335.12 2012.26 1331.9 Q2015.41 1328.68 2020.64 1328.68 Q2026.64 1328.68 2029.79 1333.29 Q2032.96 1337.87 2032.96 1346.62 Q2032.96 1354.79 2029.07 1359.68 Q2025.2 1364.54 2018.65 1364.54 Q2016.89 1364.54 2015.09 1364.19 Q2013.28 1363.84 2011.34 1363.15 M2020.64 1348.5 Q2023.79 1348.5 2025.62 1346.34 Q2027.47 1344.19 2027.47 1340.44 Q2027.47 1336.71 2025.62 1334.56 Q2023.79 1332.38 2020.64 1332.38 Q2017.5 1332.38 2015.64 1334.56 Q2013.82 1336.71 2013.82 1340.44 Q2013.82 1344.19 2015.64 1346.34 Q2017.5 1348.5 2020.64 1348.5 Z" fill="#000000" fill-rule="evenodd" fill-opacity="1" /><path clip-path="url(#clip200)" d="M 0 0 M2048.03 1332.38 Q2044.42 1332.38 2042.59 1335.95 Q2040.78 1339.49 2040.78 1346.62 Q2040.78 1353.73 2042.59 1357.29 Q2044.42 1360.83 2048.03 1360.83 Q2051.66 1360.83 2053.47 1357.29 Q2055.3 1353.73 2055.3 1346.62 Q2055.3 1339.49 2053.47 1335.95 Q2051.66 1332.38 2048.03 1332.38 M2048.03 1328.68 Q2053.84 1328.68 2056.89 1333.29 Q2059.97 1337.87 2059.97 1346.62 Q2059.97 1355.35 2056.89 1359.95 Q2053.84 1364.54 2048.03 1364.54 Q2042.22 1364.54 2039.14 1359.95 Q2036.08 1355.35 2036.08 1346.62 Q2036.08 1337.87 2039.14 1333.29 Q2042.22 1328.68 2048.03 1328.68 Z" fill="#000000" fill-rule="evenodd" fill-opacity="1" /><path clip-path="url(#clip200)" d="M 0 0 M2144.31 1302.08 Q2147.66 1302.8 2149.54 1305.07 Q2151.44 1307.34 2151.44 1310.67 Q2151.44 1315.79 2147.92 1318.59 Q2144.4 1321.39 2137.92 1321.39 Q2135.74 1321.39 2133.43 1320.95 Q2131.14 1320.53 2128.68 1319.68 L2128.68 1315.16 Q2130.63 1316.3 2132.94 1316.87 Q2135.26 1317.45 2137.78 1317.45 Q2142.18 1317.45 2144.47 1315.72 Q2146.79 1313.98 2146.79 1310.67 Q2146.79 1307.62 2144.63 1305.9 Q2142.5 1304.17 2138.68 1304.17 L2134.66 1304.17 L2134.66 1300.32 L2138.87 1300.32 Q2142.32 1300.32 2144.15 1298.96 Q2145.97 1297.57 2145.97 1294.98 Q2145.97 1292.31 2144.08 1290.9 Q2142.2 1289.47 2138.68 1289.47 Q2136.76 1289.47 2134.56 1289.88 Q2132.36 1290.3 2129.73 1291.18 L2129.73 1287.01 Q2132.39 1286.27 2134.7 1285.9 Q2137.04 1285.53 2139.1 1285.53 Q2144.42 1285.53 2147.53 1287.96 Q2150.63 1290.37 2150.63 1294.49 Q2150.63 1297.36 2148.98 1299.35 Q2147.34 1301.32 2144.31 1302.08 Z" fill="#000000" fill-rule="evenodd" fill-opacity="1" /><path clip-path="url(#clip200)" d="M 0 0 M2166.51 1289.24 Q2162.9 1289.24 2161.07 1292.8 Q2159.26 1296.34 2159.26 1303.47 Q2159.26 1310.58 2161.07 1314.14 Q2162.9 1317.68 2166.51 1317.68 Q2170.14 1317.68 2171.95 1314.14 Q2173.78 1310.58 2173.78 1303.47 Q2173.78 1296.34 2171.95 1292.8 Q2170.14 1289.24 2166.51 1289.24 M2166.51 1285.53 Q2172.32 1285.53 2175.37 1290.14 Q2178.45 1294.72 2178.45 1303.47 Q2178.45 1312.2 2175.37 1316.8 Q2172.32 1321.39 2166.51 1321.39 Q2160.7 1321.39 2157.62 1316.8 Q2154.56 1312.2 2154.56 1303.47 Q2154.56 1294.72 2157.62 1290.14 Q2160.7 1285.53 2166.51 1285.53 Z" fill="#000000" fill-rule="evenodd" fill-opacity="1" /><path clip-path="url(#clip200)" d="M 0 0 M2193.52 1289.24 Q2189.91 1289.24 2188.08 1292.8 Q2186.28 1296.34 2186.28 1303.47 Q2186.28 1310.58 2188.08 1314.14 Q2189.91 1317.68 2193.52 1317.68 Q2197.16 1317.68 2198.96 1314.14 Q2200.79 1310.58 2200.79 1303.47 Q2200.79 1296.34 2198.96 1292.8 Q2197.16 1289.24 2193.52 1289.24 M2193.52 1285.53 Q2199.33 1285.53 2202.39 1290.14 Q2205.47 1294.72 2205.47 1303.47 Q2205.47 1312.2 2202.39 1316.8 Q2199.33 1321.39 2193.52 1321.39 Q2187.71 1321.39 2184.63 1316.8 Q2181.58 1312.2 2181.58 1303.47 Q2181.58 1294.72 2184.63 1290.14 Q2187.71 1285.53 2193.52 1285.53 Z" fill="#000000" fill-rule="evenodd" fill-opacity="1" /><path clip-path="url(#clip200)" d="M 0 0 M2289.92 1258.93 Q2293.27 1259.65 2295.15 1261.92 Q2297.05 1264.19 2297.05 1267.52 Q2297.05 1272.64 2293.53 1275.44 Q2290.01 1278.24 2283.53 1278.24 Q2281.35 1278.24 2279.04 1277.8 Q2276.75 1277.38 2274.29 1276.53 L2274.29 1272.01 Q2276.24 1273.15 2278.55 1273.73 Q2280.87 1274.3 2283.39 1274.3 Q2287.79 1274.3 2290.08 1272.57 Q2292.39 1270.83 2292.39 1267.52 Q2292.39 1264.47 2290.24 1262.75 Q2288.11 1261.02 2284.29 1261.02 L2280.26 1261.02 L2280.26 1257.18 L2284.48 1257.18 Q2287.93 1257.18 2289.75 1255.81 Q2291.58 1254.42 2291.58 1251.83 Q2291.58 1249.17 2289.69 1247.75 Q2287.81 1246.32 2284.29 1246.32 Q2282.37 1246.32 2280.17 1246.74 Q2277.97 1247.15 2275.33 1248.03 L2275.33 1243.87 Q2278 1243.12 2280.31 1242.75 Q2282.65 1242.38 2284.71 1242.38 Q2290.03 1242.38 2293.13 1244.81 Q2296.24 1247.22 2296.24 1251.34 Q2296.24 1254.21 2294.59 1256.2 Q2292.95 1258.17 2289.92 1258.93 Z" fill="#000000" fill-rule="evenodd" fill-opacity="1" /><path clip-path="url(#clip200)" d="M 0 0 M2302.93 1273.63 L2310.57 1273.63 L2310.57 1247.27 L2302.25 1248.93 L2302.25 1244.68 L2310.52 1243.01 L2315.19 1243.01 L2315.19 1273.63 L2322.83 1273.63 L2322.83 1277.57 L2302.93 1277.57 L2302.93 1273.63 Z" fill="#000000" fill-rule="evenodd" fill-opacity="1" /><path clip-path="url(#clip200)" d="M 0 0 M2337.9 1246.09 Q2334.29 1246.09 2332.46 1249.65 Q2330.66 1253.19 2330.66 1260.32 Q2330.66 1267.43 2332.46 1270.99 Q2334.29 1274.54 2337.9 1274.54 Q2341.54 1274.54 2343.34 1270.99 Q2345.17 1267.43 2345.17 1260.32 Q2345.17 1253.19 2343.34 1249.65 Q2341.54 1246.09 2337.9 1246.09 M2337.9 1242.38 Q2343.71 1242.38 2346.77 1246.99 Q2349.85 1251.57 2349.85 1260.32 Q2349.85 1269.05 2346.77 1273.66 Q2343.71 1278.24 2337.9 1278.24 Q2332.09 1278.24 2329.01 1273.66 Q2325.96 1269.05 2325.96 1260.32 Q2325.96 1251.57 2329.01 1246.99 Q2332.09 1242.38 2337.9 1242.38 Z" fill="#000000" fill-rule="evenodd" fill-opacity="1" /><path clip-path="url(#clip200)" d="M 0 0 M1898.68 1440.64 L1938.88 1440.64 L1938.88 1446.05 L1922.01 1446.05 L1922.01 1488.16 L1915.55 1488.16 L1915.55 1446.05 L1898.68 1446.05 L1898.68 1440.64 Z" fill="#000000" fill-rule="evenodd" fill-opacity="1" /><path clip-path="url(#clip200)" d="M 0 0 M1964.44 1468.87 L1964.44 1471.73 L1937.51 1471.73 Q1937.89 1477.78 1941.14 1480.96 Q1944.42 1484.12 1950.24 1484.12 Q1953.62 1484.12 1956.77 1483.29 Q1959.95 1482.46 1963.07 1480.8 L1963.07 1486.34 Q1959.92 1487.68 1956.61 1488.38 Q1953.3 1489.08 1949.89 1489.08 Q1941.36 1489.08 1936.37 1484.12 Q1931.4 1479.15 1931.4 1470.68 Q1931.4 1461.93 1936.11 1456.81 Q1940.85 1451.65 1948.87 1451.65 Q1956.07 1451.65 1960.24 1456.3 Q1964.44 1460.91 1964.44 1468.87 M1958.58 1467.15 Q1958.52 1462.34 1955.88 1459.48 Q1953.27 1456.62 1948.94 1456.62 Q1944.04 1456.62 1941.08 1459.38 Q1938.15 1462.15 1937.7 1467.18 L1958.58 1467.15 Z" fill="#000000" fill-rule="evenodd" fill-opacity="1" /><path clip-path="url(#clip200)" d="M 0 0 M1998.34 1459.35 Q2000.53 1455.41 2003.59 1453.53 Q2006.64 1451.65 2010.78 1451.65 Q2016.35 1451.65 2019.37 1455.56 Q2022.4 1459.45 2022.4 1466.64 L2022.4 1488.16 L2016.51 1488.16 L2016.51 1466.83 Q2016.51 1461.71 2014.7 1459.23 Q2012.88 1456.74 2009.16 1456.74 Q2004.61 1456.74 2001.96 1459.77 Q1999.32 1462.79 1999.32 1468.01 L1999.32 1488.16 L1993.43 1488.16 L1993.43 1466.83 Q1993.43 1461.68 1991.62 1459.23 Q1989.81 1456.74 1986.02 1456.74 Q1981.53 1456.74 1978.89 1459.8 Q1976.25 1462.82 1976.25 1468.01 L1976.25 1488.16 L1970.36 1488.16 L1970.36 1452.51 L1976.25 1452.51 L1976.25 1458.05 Q1978.25 1454.77 1981.05 1453.21 Q1983.85 1451.65 1987.71 1451.65 Q1991.59 1451.65 1994.29 1453.62 Q1997.03 1455.6 1998.34 1459.35 Z" fill="#000000" fill-rule="evenodd" fill-opacity="1" /><path clip-path="url(#clip200)" d="M 0 0 M2034.21 1482.81 L2034.21 1501.72 L2028.32 1501.72 L2028.32 1452.51 L2034.21 1452.51 L2034.21 1457.92 Q2036.05 1454.74 2038.85 1453.21 Q2041.69 1451.65 2045.6 1451.65 Q2052.09 1451.65 2056.14 1456.81 Q2060.21 1461.96 2060.21 1470.37 Q2060.21 1478.77 2056.14 1483.92 Q2052.09 1489.08 2045.6 1489.08 Q2041.69 1489.08 2038.85 1487.55 Q2036.05 1485.99 2034.21 1482.81 M2054.13 1470.37 Q2054.13 1463.9 2051.46 1460.24 Q2048.82 1456.55 2044.17 1456.55 Q2039.52 1456.55 2036.85 1460.24 Q2034.21 1463.9 2034.21 1470.37 Q2034.21 1476.83 2036.85 1480.52 Q2039.52 1484.18 2044.17 1484.18 Q2048.82 1484.18 2051.46 1480.52 Q2054.13 1476.83 2054.13 1470.37 Z" fill="#000000" fill-rule="evenodd" fill-opacity="1" /><path clip-path="url(#clip200)" d="M 0 0 M2096.85 1468.87 L2096.85 1471.73 L2069.92 1471.73 Q2070.3 1477.78 2073.55 1480.96 Q2076.83 1484.12 2082.65 1484.12 Q2086.02 1484.12 2089.17 1483.29 Q2092.36 1482.46 2095.48 1480.8 L2095.48 1486.34 Q2092.33 1487.68 2089.02 1488.38 Q2085.71 1489.08 2082.3 1489.08 Q2073.77 1489.08 2068.77 1484.12 Q2063.81 1479.15 2063.81 1470.68 Q2063.81 1461.93 2068.52 1456.81 Q2073.26 1451.65 2081.28 1451.65 Q2088.47 1451.65 2092.64 1456.3 Q2096.85 1460.91 2096.85 1468.87 M2090.99 1467.15 Q2090.93 1462.34 2088.28 1459.48 Q2085.67 1456.62 2081.35 1456.62 Q2076.44 1456.62 2073.48 1459.38 Q2070.56 1462.15 2070.11 1467.18 L2090.99 1467.15 Z" fill="#000000" fill-rule="evenodd" fill-opacity="1" /><path clip-path="url(#clip200)" d="M 0 0 M2123.65 1457.98 Q2122.66 1457.41 2121.48 1457.16 Q2120.34 1456.87 2118.93 1456.87 Q2113.97 1456.87 2111.3 1460.12 Q2108.65 1463.33 2108.65 1469.38 L2108.65 1488.16 L2102.77 1488.16 L2102.77 1452.51 L2108.65 1452.51 L2108.65 1458.05 Q2110.5 1454.8 2113.46 1453.24 Q2116.42 1451.65 2120.65 1451.65 Q2121.26 1451.65 2121.99 1451.75 Q2122.72 1451.81 2123.61 1451.97 L2123.65 1457.98 Z" fill="#000000" fill-rule="evenodd" fill-opacity="1" /><path clip-path="url(#clip200)" d="M 0 0 M2145.99 1470.24 Q2138.89 1470.24 2136.15 1471.86 Q2133.42 1473.48 2133.42 1477.4 Q2133.42 1480.52 2135.45 1482.36 Q2137.52 1484.18 2141.06 1484.18 Q2145.93 1484.18 2148.85 1480.74 Q2151.81 1477.27 2151.81 1471.54 L2151.81 1470.24 L2145.99 1470.24 M2157.67 1467.82 L2157.67 1488.16 L2151.81 1488.16 L2151.81 1482.75 Q2149.81 1485.99 2146.82 1487.55 Q2143.82 1489.08 2139.5 1489.08 Q2134.02 1489.08 2130.77 1486.02 Q2127.56 1482.94 2127.56 1477.78 Q2127.56 1471.77 2131.57 1468.71 Q2135.61 1465.65 2143.6 1465.65 L2151.81 1465.65 L2151.81 1465.08 Q2151.81 1461.04 2149.14 1458.84 Q2146.5 1456.62 2141.69 1456.62 Q2138.64 1456.62 2135.74 1457.35 Q2132.84 1458.08 2130.17 1459.54 L2130.17 1454.13 Q2133.38 1452.89 2136.41 1452.29 Q2139.43 1451.65 2142.3 1451.65 Q2150.03 1451.65 2153.85 1455.66 Q2157.67 1459.67 2157.67 1467.82 Z" fill="#000000" fill-rule="evenodd" fill-opacity="1" /><path clip-path="url(#clip200)" d="M 0 0 M2169.61 1442.39 L2169.61 1452.51 L2181.67 1452.51 L2181.67 1457.06 L2169.61 1457.06 L2169.61 1476.41 Q2169.61 1480.77 2170.78 1482.01 Q2171.99 1483.26 2175.65 1483.26 L2181.67 1483.26 L2181.67 1488.16 L2175.65 1488.16 Q2168.87 1488.16 2166.3 1485.64 Q2163.72 1483.1 2163.72 1476.41 L2163.72 1457.06 L2159.42 1457.06 L2159.42 1452.51 L2163.72 1452.51 L2163.72 1442.39 L2169.61 1442.39 Z" fill="#000000" fill-rule="evenodd" fill-opacity="1" /><path clip-path="url(#clip200)" d="M 0 0 M2187.21 1474.09 L2187.21 1452.51 L2193.06 1452.51 L2193.06 1473.87 Q2193.06 1478.93 2195.04 1481.47 Q2197.01 1483.99 2200.96 1483.99 Q2205.7 1483.99 2208.44 1480.96 Q2211.21 1477.94 2211.21 1472.72 L2211.21 1452.51 L2217.06 1452.51 L2217.06 1488.16 L2211.21 1488.16 L2211.21 1482.68 Q2209.07 1485.93 2206.24 1487.52 Q2203.44 1489.08 2199.72 1489.08 Q2193.57 1489.08 2190.39 1485.26 Q2187.21 1481.44 2187.21 1474.09 M2201.94 1451.65 L2201.94 1451.65 Z" fill="#000000" fill-rule="evenodd" fill-opacity="1" /><path clip-path="url(#clip200)" d="M 0 0 M2243.86 1457.98 Q2242.87 1457.41 2241.7 1457.16 Q2240.55 1456.87 2239.15 1456.87 Q2234.19 1456.87 2231.51 1460.12 Q2228.87 1463.33 2228.87 1469.38 L2228.87 1488.16 L2222.98 1488.16 L2222.98 1452.51 L2228.87 1452.51 L2228.87 1458.05 Q2230.72 1454.8 2233.68 1453.24 Q2236.64 1451.65 2240.87 1451.65 Q2241.47 1451.65 2242.21 1451.75 Q2242.94 1451.81 2243.83 1451.97 L2243.86 1457.98 Z" fill="#000000" fill-rule="evenodd" fill-opacity="1" /><path clip-path="url(#clip200)" d="M 0 0 M2279.06 1468.87 L2279.06 1471.73 L2252.14 1471.73 Q2252.52 1477.78 2255.77 1480.96 Q2259.04 1484.12 2264.87 1484.12 Q2268.24 1484.12 2271.39 1483.29 Q2274.58 1482.46 2277.7 1480.8 L2277.7 1486.34 Q2274.54 1487.68 2271.23 1488.38 Q2267.92 1489.08 2264.52 1489.08 Q2255.99 1489.08 2250.99 1484.12 Q2246.03 1479.15 2246.03 1470.68 Q2246.03 1461.93 2250.74 1456.81 Q2255.48 1451.65 2263.5 1451.65 Q2270.69 1451.65 2274.86 1456.3 Q2279.06 1460.91 2279.06 1468.87 M2273.21 1467.15 Q2273.14 1462.34 2270.5 1459.48 Q2267.89 1456.62 2263.56 1456.62 Q2258.66 1456.62 2255.7 1459.38 Q2252.77 1462.15 2252.33 1467.18 L2273.21 1467.15 Z" fill="#000000" fill-rule="evenodd" fill-opacity="1" /><polyline clip-path="url(#clip202)" style="stroke:#000000; stroke-width:2; stroke-opacity:0.1; fill:none" points="
  238.13,1346.4 1012.14,1116.07 
  "/>
<polyline clip-path="url(#clip202)" style="stroke:#000000; stroke-width:2; stroke-opacity:0.1; fill:none" points="
  1012.14,1116.07 2352.76,1192.85 
  "/>
<polyline clip-path="url(#clip202)" style="stroke:#000000; stroke-width:2; stroke-opacity:0.1; fill:none" points="
  238.13,1052.78 1012.14,822.45 
  "/>
<polyline clip-path="url(#clip202)" style="stroke:#000000; stroke-width:2; stroke-opacity:0.1; fill:none" points="
  1012.14,822.45 2352.76,899.228 
  "/>
<polyline clip-path="url(#clip202)" style="stroke:#000000; stroke-width:2; stroke-opacity:0.1; fill:none" points="
  238.13,759.163 1012.14,528.831 
  "/>
<polyline clip-path="url(#clip202)" style="stroke:#000000; stroke-width:2; stroke-opacity:0.1; fill:none" points="
  1012.14,528.831 2352.76,605.608 
  "/>
<polyline clip-path="url(#clip202)" style="stroke:#000000; stroke-width:2; stroke-opacity:0.1; fill:none" points="
  238.13,465.544 1012.14,235.211 
  "/>
<polyline clip-path="url(#clip202)" style="stroke:#000000; stroke-width:2; stroke-opacity:0.1; fill:none" points="
  1012.14,235.211 2352.76,311.989 
  "/>
<polyline clip-path="url(#clip200)" style="stroke:#000000; stroke-width:4; stroke-opacity:1; fill:none" points="
  238.13,1346.4 238.13,353.805 
  "/>
<polyline clip-path="url(#clip200)" style="stroke:#000000; stroke-width:4; stroke-opacity:1; fill:none" points="
  238.13,1346.4 247.418,1343.64 
  "/>
<polyline clip-path="url(#clip200)" style="stroke:#000000; stroke-width:4; stroke-opacity:1; fill:none" points="
  238.13,1052.78 247.418,1050.02 
  "/>
<polyline clip-path="url(#clip200)" style="stroke:#000000; stroke-width:4; stroke-opacity:1; fill:none" points="
  238.13,759.163 247.418,756.399 
  "/>
<polyline clip-path="url(#clip200)" style="stroke:#000000; stroke-width:4; stroke-opacity:1; fill:none" points="
  238.13,465.544 247.418,462.78 
  "/>
<path clip-path="url(#clip200)" d="M 0 0 M138.205 1332.2 Q134.593 1332.2 132.765 1335.77 Q130.959 1339.31 130.959 1346.44 Q130.959 1353.54 132.765 1357.11 Q134.593 1360.65 138.205 1360.65 Q141.839 1360.65 143.644 1357.11 Q145.473 1353.54 145.473 1346.44 Q145.473 1339.31 143.644 1335.77 Q141.839 1332.2 138.205 1332.2 M138.205 1328.5 Q144.015 1328.5 147.07 1333.1 Q150.149 1337.69 150.149 1346.44 Q150.149 1355.16 147.07 1359.77 Q144.015 1364.35 138.205 1364.35 Q132.394 1364.35 129.316 1359.77 Q126.26 1355.16 126.26 1346.44 Q126.26 1337.69 129.316 1333.1 Q132.394 1328.5 138.205 1328.5 Z" fill="#000000" fill-rule="evenodd" fill-opacity="1" /><path clip-path="url(#clip200)" d="M 0 0 M155.218 1357.8 L160.103 1357.8 L160.103 1363.68 L155.218 1363.68 L155.218 1357.8 Z" fill="#000000" fill-rule="evenodd" fill-opacity="1" /><path clip-path="url(#clip200)" d="M 0 0 M175.172 1332.2 Q171.561 1332.2 169.732 1335.77 Q167.927 1339.31 167.927 1346.44 Q167.927 1353.54 169.732 1357.11 Q171.561 1360.65 175.172 1360.65 Q178.806 1360.65 180.612 1357.11 Q182.44 1353.54 182.44 1346.44 Q182.44 1339.31 180.612 1335.77 Q178.806 1332.2 175.172 1332.2 M175.172 1328.5 Q180.982 1328.5 184.038 1333.1 Q187.116 1337.69 187.116 1346.44 Q187.116 1355.16 184.038 1359.77 Q180.982 1364.35 175.172 1364.35 Q169.362 1364.35 166.283 1359.77 Q163.228 1355.16 163.228 1346.44 Q163.228 1337.69 166.283 1333.1 Q169.362 1328.5 175.172 1328.5 Z" fill="#000000" fill-rule="evenodd" fill-opacity="1" /><path clip-path="url(#clip200)" d="M 0 0 M202.186 1332.2 Q198.575 1332.2 196.746 1335.77 Q194.94 1339.31 194.94 1346.44 Q194.94 1353.54 196.746 1357.11 Q198.575 1360.65 202.186 1360.65 Q205.82 1360.65 207.625 1357.11 Q209.454 1353.54 209.454 1346.44 Q209.454 1339.31 207.625 1335.77 Q205.82 1332.2 202.186 1332.2 M202.186 1328.5 Q207.996 1328.5 211.051 1333.1 Q214.13 1337.69 214.13 1346.44 Q214.13 1355.16 211.051 1359.77 Q207.996 1364.35 202.186 1364.35 Q196.376 1364.35 193.297 1359.77 Q190.241 1355.16 190.241 1346.44 Q190.241 1337.69 193.297 1333.1 Q196.376 1328.5 202.186 1328.5 Z" fill="#000000" fill-rule="evenodd" fill-opacity="1" /><path clip-path="url(#clip200)" d="M 0 0 M139.2 1038.58 Q135.589 1038.58 133.76 1042.15 Q131.955 1045.69 131.955 1052.82 Q131.955 1059.92 133.76 1063.49 Q135.589 1067.03 139.2 1067.03 Q142.834 1067.03 144.64 1063.49 Q146.468 1059.92 146.468 1052.82 Q146.468 1045.69 144.64 1042.15 Q142.834 1038.58 139.2 1038.58 M139.2 1034.88 Q145.01 1034.88 148.066 1039.48 Q151.144 1044.07 151.144 1052.82 Q151.144 1061.54 148.066 1066.15 Q145.01 1070.73 139.2 1070.73 Q133.39 1070.73 130.311 1066.15 Q127.256 1061.54 127.256 1052.82 Q127.256 1044.07 130.311 1039.48 Q133.39 1034.88 139.2 1034.88 Z" fill="#000000" fill-rule="evenodd" fill-opacity="1" /><path clip-path="url(#clip200)" d="M 0 0 M156.214 1064.18 L161.098 1064.18 L161.098 1070.06 L156.214 1070.06 L156.214 1064.18 Z" fill="#000000" fill-rule="evenodd" fill-opacity="1" /><path clip-path="url(#clip200)" d="M 0 0 M176.167 1038.58 Q172.556 1038.58 170.728 1042.15 Q168.922 1045.69 168.922 1052.82 Q168.922 1059.92 170.728 1063.49 Q172.556 1067.03 176.167 1067.03 Q179.802 1067.03 181.607 1063.49 Q183.436 1059.92 183.436 1052.82 Q183.436 1045.69 181.607 1042.15 Q179.802 1038.58 176.167 1038.58 M176.167 1034.88 Q181.977 1034.88 185.033 1039.48 Q188.112 1044.07 188.112 1052.82 Q188.112 1061.54 185.033 1066.15 Q181.977 1070.73 176.167 1070.73 Q170.357 1070.73 167.278 1066.15 Q164.223 1061.54 164.223 1052.82 Q164.223 1044.07 167.278 1039.48 Q170.357 1034.88 176.167 1034.88 Z" fill="#000000" fill-rule="evenodd" fill-opacity="1" /><path clip-path="url(#clip200)" d="M 0 0 M193.227 1035.5 L211.584 1035.5 L211.584 1039.44 L197.51 1039.44 L197.51 1047.91 Q198.528 1047.56 199.547 1047.4 Q200.565 1047.22 201.584 1047.22 Q207.371 1047.22 210.75 1050.39 Q214.13 1053.56 214.13 1058.97 Q214.13 1064.55 210.658 1067.66 Q207.186 1070.73 200.866 1070.73 Q198.69 1070.73 196.422 1070.36 Q194.176 1069.99 191.769 1069.25 L191.769 1064.55 Q193.852 1065.69 196.075 1066.24 Q198.297 1066.8 200.774 1066.8 Q204.778 1066.8 207.116 1064.69 Q209.454 1062.59 209.454 1058.97 Q209.454 1055.36 207.116 1053.26 Q204.778 1051.15 200.774 1051.15 Q198.899 1051.15 197.024 1051.57 Q195.172 1051.98 193.227 1052.86 L193.227 1035.5 Z" fill="#000000" fill-rule="evenodd" fill-opacity="1" /><path clip-path="url(#clip200)" d="M 0 0 M139.431 744.962 Q135.82 744.962 133.992 748.527 Q132.186 752.069 132.186 759.198 Q132.186 766.305 133.992 769.869 Q135.82 773.411 139.431 773.411 Q143.066 773.411 144.871 769.869 Q146.7 766.305 146.7 759.198 Q146.7 752.069 144.871 748.527 Q143.066 744.962 139.431 744.962 M139.431 741.258 Q145.242 741.258 148.297 745.865 Q151.376 750.448 151.376 759.198 Q151.376 767.925 148.297 772.531 Q145.242 777.115 139.431 777.115 Q133.621 777.115 130.543 772.531 Q127.487 767.925 127.487 759.198 Q127.487 750.448 130.543 745.865 Q133.621 741.258 139.431 741.258 Z" fill="#000000" fill-rule="evenodd" fill-opacity="1" /><path clip-path="url(#clip200)" d="M 0 0 M156.445 770.564 L161.329 770.564 L161.329 776.443 L156.445 776.443 L156.445 770.564 Z" fill="#000000" fill-rule="evenodd" fill-opacity="1" /><path clip-path="url(#clip200)" d="M 0 0 M167.209 772.508 L174.848 772.508 L174.848 746.143 L166.538 747.809 L166.538 743.55 L174.802 741.883 L179.477 741.883 L179.477 772.508 L187.116 772.508 L187.116 776.443 L167.209 776.443 L167.209 772.508 Z" fill="#000000" fill-rule="evenodd" fill-opacity="1" /><path clip-path="url(#clip200)" d="M 0 0 M202.186 744.962 Q198.575 744.962 196.746 748.527 Q194.94 752.069 194.94 759.198 Q194.94 766.305 196.746 769.869 Q198.575 773.411 202.186 773.411 Q205.82 773.411 207.625 769.869 Q209.454 766.305 209.454 759.198 Q209.454 752.069 207.625 748.527 Q205.82 744.962 202.186 744.962 M202.186 741.258 Q207.996 741.258 211.051 745.865 Q214.13 750.448 214.13 759.198 Q214.13 767.925 211.051 772.531 Q207.996 777.115 202.186 777.115 Q196.376 777.115 193.297 772.531 Q190.241 767.925 190.241 759.198 Q190.241 750.448 193.297 745.865 Q196.376 741.258 202.186 741.258 Z" fill="#000000" fill-rule="evenodd" fill-opacity="1" /><path clip-path="url(#clip200)" d="M 0 0 M140.427 451.343 Q136.816 451.343 134.987 454.908 Q133.181 458.449 133.181 465.579 Q133.181 472.685 134.987 476.25 Q136.816 479.792 140.427 479.792 Q144.061 479.792 145.867 476.25 Q147.695 472.685 147.695 465.579 Q147.695 458.449 145.867 454.908 Q144.061 451.343 140.427 451.343 M140.427 447.639 Q146.237 447.639 149.292 452.246 Q152.371 456.829 152.371 465.579 Q152.371 474.306 149.292 478.912 Q146.237 483.495 140.427 483.495 Q134.617 483.495 131.538 478.912 Q128.482 474.306 128.482 465.579 Q128.482 456.829 131.538 452.246 Q134.617 447.639 140.427 447.639 Z" fill="#000000" fill-rule="evenodd" fill-opacity="1" /><path clip-path="url(#clip200)" d="M 0 0 M157.441 476.945 L162.325 476.945 L162.325 482.824 L157.441 482.824 L157.441 476.945 Z" fill="#000000" fill-rule="evenodd" fill-opacity="1" /><path clip-path="url(#clip200)" d="M 0 0 M168.204 478.889 L175.843 478.889 L175.843 452.523 L167.533 454.19 L167.533 449.931 L175.797 448.264 L180.473 448.264 L180.473 478.889 L188.112 478.889 L188.112 482.824 L168.204 482.824 L168.204 478.889 Z" fill="#000000" fill-rule="evenodd" fill-opacity="1" /><path clip-path="url(#clip200)" d="M 0 0 M193.227 448.264 L211.584 448.264 L211.584 452.199 L197.51 452.199 L197.51 460.671 Q198.528 460.324 199.547 460.162 Q200.565 459.977 201.584 459.977 Q207.371 459.977 210.75 463.148 Q214.13 466.32 214.13 471.736 Q214.13 477.315 210.658 480.417 Q207.186 483.495 200.866 483.495 Q198.69 483.495 196.422 483.125 Q194.176 482.755 191.769 482.014 L191.769 477.315 Q193.852 478.449 196.075 479.005 Q198.297 479.56 200.774 479.56 Q204.778 479.56 207.116 477.454 Q209.454 475.347 209.454 471.736 Q209.454 468.125 207.116 466.019 Q204.778 463.912 200.774 463.912 Q198.899 463.912 197.024 464.329 Q195.172 464.746 193.227 465.625 L193.227 448.264 Z" fill="#000000" fill-rule="evenodd" fill-opacity="1" /><path clip-path="url(#clip200)" d="M 0 0 M88.4842 1171.67 L88.4842 1131.47 L93.895 1131.47 L93.895 1148.34 L136.004 1148.34 L136.004 1154.8 L93.895 1154.8 L93.895 1171.67 L88.4842 1171.67 Z" fill="#000000" fill-rule="evenodd" fill-opacity="1" /><path clip-path="url(#clip200)" d="M 0 0 M104.462 1122.59 Q104.462 1127.3 108.154 1130.04 Q111.814 1132.77 118.212 1132.77 Q124.61 1132.77 128.302 1130.07 Q131.962 1127.33 131.962 1122.59 Q131.962 1117.91 128.27 1115.17 Q124.578 1112.43 118.212 1112.43 Q111.878 1112.43 108.186 1115.17 Q104.462 1117.91 104.462 1122.59 M99.4968 1122.59 Q99.4968 1114.95 104.462 1110.59 Q109.427 1106.23 118.212 1106.23 Q126.965 1106.23 131.962 1110.59 Q136.927 1114.95 136.927 1122.59 Q136.927 1130.26 131.962 1134.62 Q126.965 1138.95 118.212 1138.95 Q109.427 1138.95 104.462 1134.62 Q99.4968 1130.26 99.4968 1122.59 Z" fill="#000000" fill-rule="evenodd" fill-opacity="1" /><path clip-path="url(#clip200)" d="M 0 0 M90.2347 1094.29 L100.356 1094.29 L100.356 1082.23 L104.908 1082.23 L104.908 1094.29 L124.259 1094.29 Q128.62 1094.29 129.861 1093.11 Q131.103 1091.91 131.103 1088.24 L131.103 1082.23 L136.004 1082.23 L136.004 1088.24 Q136.004 1095.02 133.49 1097.6 Q130.943 1100.18 124.259 1100.18 L104.908 1100.18 L104.908 1104.48 L100.356 1104.48 L100.356 1100.18 L90.2347 1100.18 L90.2347 1094.29 Z" fill="#000000" fill-rule="evenodd" fill-opacity="1" /><path clip-path="url(#clip200)" d="M 0 0 M118.085 1059.89 Q118.085 1066.98 119.708 1069.72 Q121.331 1072.46 125.246 1072.46 Q128.365 1072.46 130.211 1070.42 Q132.026 1068.35 132.026 1064.82 Q132.026 1059.95 128.588 1057.02 Q125.119 1054.06 119.39 1054.06 L118.085 1054.06 L118.085 1059.89 M115.666 1048.2 L136.004 1048.2 L136.004 1054.06 L130.593 1054.06 Q133.84 1056.07 135.399 1059.06 Q136.927 1062.05 136.927 1066.38 Q136.927 1071.85 133.872 1075.1 Q130.784 1078.31 125.628 1078.31 Q119.612 1078.31 116.557 1074.3 Q113.501 1070.26 113.501 1062.27 L113.501 1054.06 L112.928 1054.06 Q108.886 1054.06 106.69 1056.73 Q104.462 1059.38 104.462 1064.18 Q104.462 1067.24 105.194 1070.13 Q105.926 1073.03 107.39 1075.7 L101.979 1075.7 Q100.738 1072.49 100.133 1069.47 Q99.4968 1066.44 99.4968 1063.58 Q99.4968 1055.84 103.507 1052.02 Q107.518 1048.2 115.666 1048.2 Z" fill="#000000" fill-rule="evenodd" fill-opacity="1" /><path clip-path="url(#clip200)" d="M 0 0 M86.479 1042.06 L86.479 1036.21 L136.004 1036.21 L136.004 1042.06 L86.479 1042.06 Z" fill="#000000" fill-rule="evenodd" fill-opacity="1" /><path clip-path="url(#clip200)" d="M 0 0 M101.407 986.616 L106.945 986.616 Q105.672 989.099 105.035 991.772 Q104.398 994.446 104.398 997.311 Q104.398 1001.67 105.735 1003.87 Q107.072 1006.03 109.746 1006.03 Q111.783 1006.03 112.96 1004.47 Q114.106 1002.91 115.156 998.202 L115.602 996.197 Q116.939 989.958 119.39 987.348 Q121.809 984.707 126.169 984.707 Q131.134 984.707 134.031 988.653 Q136.927 992.568 136.927 999.443 Q136.927 1002.31 136.354 1005.43 Q135.813 1008.51 134.699 1011.95 L128.652 1011.95 Q130.339 1008.71 131.198 1005.55 Q132.026 1002.4 132.026 999.316 Q132.026 995.178 130.625 992.95 Q129.193 990.722 126.615 990.722 Q124.228 990.722 122.954 992.345 Q121.681 993.937 120.504 999.379 L120.026 1001.42 Q118.88 1006.86 116.525 1009.28 Q114.138 1011.7 110 1011.7 Q104.971 1011.7 102.234 1008.13 Q99.4968 1004.57 99.4968 998.011 Q99.4968 994.764 99.9743 991.9 Q100.452 989.035 101.407 986.616 Z" fill="#000000" fill-rule="evenodd" fill-opacity="1" /><path clip-path="url(#clip200)" d="M 0 0 M130.657 972.898 L149.563 972.898 L149.563 978.786 L100.356 978.786 L100.356 972.898 L105.767 972.898 Q102.584 971.052 101.056 968.251 Q99.4968 965.418 99.4968 961.504 Q99.4968 955.01 104.653 950.968 Q109.809 946.894 118.212 946.894 Q126.615 946.894 131.771 950.968 Q136.927 955.01 136.927 961.504 Q136.927 965.418 135.399 968.251 Q133.84 971.052 130.657 972.898 M118.212 952.973 Q111.751 952.973 108.091 955.647 Q104.398 958.289 104.398 962.936 Q104.398 967.583 108.091 970.256 Q111.751 972.898 118.212 972.898 Q124.673 972.898 128.365 970.256 Q132.026 967.583 132.026 962.936 Q132.026 958.289 128.365 955.647 Q124.673 952.973 118.212 952.973 Z" fill="#000000" fill-rule="evenodd" fill-opacity="1" /><path clip-path="url(#clip200)" d="M 0 0 M116.716 910.26 L119.581 910.26 L119.581 937.187 Q125.628 936.805 128.811 933.558 Q131.962 930.28 131.962 924.455 Q131.962 921.081 131.134 917.93 Q130.307 914.747 128.652 911.628 L134.19 911.628 Q135.527 914.779 136.227 918.089 Q136.927 921.4 136.927 924.805 Q136.927 933.335 131.962 938.332 Q126.997 943.298 118.53 943.298 Q109.777 943.298 104.653 938.587 Q99.4968 933.845 99.4968 925.824 Q99.4968 918.63 104.144 914.461 Q108.759 910.26 116.716 910.26 M114.997 916.116 Q110.191 916.18 107.327 918.821 Q104.462 921.431 104.462 925.76 Q104.462 930.662 107.231 933.622 Q110 936.55 115.029 936.996 L114.997 916.116 Z" fill="#000000" fill-rule="evenodd" fill-opacity="1" /><path clip-path="url(#clip200)" d="M 0 0 M101.725 878.463 L107.199 878.463 Q105.831 880.945 105.162 883.46 Q104.462 885.943 104.462 888.489 Q104.462 894.186 108.091 897.337 Q111.687 900.488 118.212 900.488 Q124.737 900.488 128.365 897.337 Q131.962 894.186 131.962 888.489 Q131.962 885.943 131.294 883.46 Q130.593 880.945 129.225 878.463 L134.636 878.463 Q135.781 880.914 136.354 883.555 Q136.927 886.165 136.927 889.125 Q136.927 897.178 131.866 901.92 Q126.806 906.663 118.212 906.663 Q109.491 906.663 104.494 901.889 Q99.4968 897.083 99.4968 888.743 Q99.4968 886.038 100.07 883.46 Q100.611 880.882 101.725 878.463 Z" fill="#000000" fill-rule="evenodd" fill-opacity="1" /><path clip-path="url(#clip200)" d="M 0 0 M100.356 872.32 L100.356 866.464 L136.004 866.464 L136.004 872.32 L100.356 872.32 M86.479 872.32 L86.479 866.464 L93.895 866.464 L93.895 872.32 L86.479 872.32 Z" fill="#000000" fill-rule="evenodd" fill-opacity="1" /><path clip-path="url(#clip200)" d="M 0 0 M86.479 842.274 L91.3487 842.274 L91.3487 847.876 Q91.3487 851.027 92.6219 852.268 Q93.895 853.477 97.2052 853.477 L100.356 853.477 L100.356 843.833 L104.908 843.833 L104.908 853.477 L136.004 853.477 L136.004 859.366 L104.908 859.366 L104.908 864.968 L100.356 864.968 L100.356 859.366 L97.8736 859.366 Q91.9216 859.366 89.2162 856.597 Q86.479 853.828 86.479 847.812 L86.479 842.274 Z" fill="#000000" fill-rule="evenodd" fill-opacity="1" /><path clip-path="url(#clip200)" d="M 0 0 M100.356 836.131 L100.356 830.274 L136.004 830.274 L136.004 836.131 L100.356 836.131 M86.479 836.131 L86.479 830.274 L93.895 830.274 L93.895 836.131 L86.479 836.131 Z" fill="#000000" fill-rule="evenodd" fill-opacity="1" /><path clip-path="url(#clip200)" d="M 0 0 M101.725 798.478 L107.199 798.478 Q105.831 800.96 105.162 803.475 Q104.462 805.957 104.462 808.504 Q104.462 814.201 108.091 817.352 Q111.687 820.503 118.212 820.503 Q124.737 820.503 128.365 817.352 Q131.962 814.201 131.962 808.504 Q131.962 805.957 131.294 803.475 Q130.593 800.96 129.225 798.478 L134.636 798.478 Q135.781 800.929 136.354 803.57 Q136.927 806.18 136.927 809.14 Q136.927 817.193 131.866 821.935 Q126.806 826.678 118.212 826.678 Q109.491 826.678 104.494 821.904 Q99.4968 817.097 99.4968 808.758 Q99.4968 806.053 100.07 803.475 Q100.611 800.897 101.725 798.478 Z" fill="#000000" fill-rule="evenodd" fill-opacity="1" /><path clip-path="url(#clip200)" d="M 0 0 M114.488 741.982 L136.004 741.982 L136.004 747.839 L114.679 747.839 Q109.618 747.839 107.104 749.812 Q104.589 751.785 104.589 755.732 Q104.589 760.474 107.613 763.212 Q110.637 765.949 115.857 765.949 L136.004 765.949 L136.004 771.837 L86.479 771.837 L86.479 765.949 L105.894 765.949 Q102.68 763.848 101.088 761.016 Q99.4968 758.151 99.4968 754.427 Q99.4968 748.284 103.316 745.133 Q107.104 741.982 114.488 741.982 Z" fill="#000000" fill-rule="evenodd" fill-opacity="1" /><path clip-path="url(#clip200)" d="M 0 0 M121.936 736.444 L100.356 736.444 L100.356 730.587 L121.713 730.587 Q126.774 730.587 129.32 728.614 Q131.835 726.641 131.835 722.694 Q131.835 717.952 128.811 715.214 Q125.787 712.445 120.567 712.445 L100.356 712.445 L100.356 706.589 L136.004 706.589 L136.004 712.445 L130.53 712.445 Q133.776 714.578 135.368 717.41 Q136.927 720.211 136.927 723.935 Q136.927 730.078 133.108 733.261 Q129.288 736.444 121.936 736.444 M99.4968 721.707 L99.4968 721.707 Z" fill="#000000" fill-rule="evenodd" fill-opacity="1" /><path clip-path="url(#clip200)" d="M 0 0 M107.199 672.691 Q103.253 670.495 101.375 667.44 Q99.4968 664.384 99.4968 660.246 Q99.4968 654.676 103.412 651.653 Q107.295 648.629 114.488 648.629 L136.004 648.629 L136.004 654.517 L114.679 654.517 Q109.555 654.517 107.072 656.332 Q104.589 658.146 104.589 661.87 Q104.589 666.421 107.613 669.063 Q110.637 671.705 115.857 671.705 L136.004 671.705 L136.004 677.593 L114.679 677.593 Q109.523 677.593 107.072 679.407 Q104.589 681.221 104.589 685.009 Q104.589 689.497 107.645 692.139 Q110.669 694.78 115.857 694.78 L136.004 694.78 L136.004 700.669 L100.356 700.669 L100.356 694.78 L105.894 694.78 Q102.616 692.775 101.056 689.974 Q99.4968 687.173 99.4968 683.322 Q99.4968 679.439 101.47 676.734 Q103.444 673.996 107.199 672.691 Z" fill="#000000" fill-rule="evenodd" fill-opacity="1" /><path clip-path="url(#clip200)" d="M 0 0 M100.356 642.486 L100.356 636.63 L136.004 636.63 L136.004 642.486 L100.356 642.486 M86.479 642.486 L86.479 636.63 L93.895 636.63 L93.895 642.486 L86.479 642.486 Z" fill="#000000" fill-rule="evenodd" fill-opacity="1" /><path clip-path="url(#clip200)" d="M 0 0 M105.767 607.029 L86.479 607.029 L86.479 601.173 L136.004 601.173 L136.004 607.029 L130.657 607.029 Q133.84 608.875 135.399 611.708 Q136.927 614.509 136.927 618.456 Q136.927 624.917 131.771 628.991 Q126.615 633.033 118.212 633.033 Q109.809 633.033 104.653 628.991 Q99.4968 624.917 99.4968 618.456 Q99.4968 614.509 101.056 611.708 Q102.584 608.875 105.767 607.029 M118.212 626.986 Q124.673 626.986 128.365 624.344 Q132.026 621.67 132.026 617.023 Q132.026 612.376 128.365 609.703 Q124.673 607.029 118.212 607.029 Q111.751 607.029 108.091 609.703 Q104.398 612.376 104.398 617.023 Q104.398 621.67 108.091 624.344 Q111.751 626.986 118.212 626.986 Z" fill="#000000" fill-rule="evenodd" fill-opacity="1" /><path clip-path="url(#clip200)" d="M 0 0 M100.356 595.03 L100.356 589.173 L136.004 589.173 L136.004 595.03 L100.356 595.03 M86.479 595.03 L86.479 589.173 L93.895 589.173 L93.895 595.03 L86.479 595.03 Z" fill="#000000" fill-rule="evenodd" fill-opacity="1" /><path clip-path="url(#clip200)" d="M 0 0 M90.2347 577.238 L100.356 577.238 L100.356 565.175 L104.908 565.175 L104.908 577.238 L124.259 577.238 Q128.62 577.238 129.861 576.06 Q131.103 574.85 131.103 571.19 L131.103 565.175 L136.004 565.175 L136.004 571.19 Q136.004 577.97 133.49 580.548 Q130.943 583.126 124.259 583.126 L104.908 583.126 L104.908 587.423 L100.356 587.423 L100.356 583.126 L90.2347 583.126 L90.2347 577.238 Z" fill="#000000" fill-rule="evenodd" fill-opacity="1" /><path clip-path="url(#clip200)" d="M 0 0 M139.314 544.2 Q145.68 546.682 147.622 549.038 Q149.563 551.393 149.563 555.34 L149.563 560.018 L144.662 560.018 L144.662 556.581 Q144.662 554.162 143.516 552.825 Q142.37 551.488 138.105 549.865 L135.431 548.815 L100.356 563.233 L100.356 557.027 L128.238 545.887 L100.356 534.747 L100.356 528.54 L139.314 544.2 Z" fill="#000000" fill-rule="evenodd" fill-opacity="1" /><path clip-path="url(#clip200)" d="M 0 0 M908.359 39.9662 Q914.233 41.222 917.514 45.1919 Q920.836 49.1618 920.836 54.9951 Q920.836 63.9476 914.678 68.8492 Q908.521 73.7508 897.178 73.7508 Q893.37 73.7508 889.32 72.9811 Q885.309 72.2519 881.015 70.7531 L881.015 62.8538 Q884.418 64.8388 888.469 65.8515 Q892.52 66.8642 896.935 66.8642 Q904.632 66.8642 908.642 63.826 Q912.693 60.7879 912.693 54.9951 Q912.693 49.6479 908.926 46.6502 Q905.199 43.612 898.515 43.612 L891.467 43.612 L891.467 36.8875 L898.839 36.8875 Q904.875 36.8875 908.075 34.4975 Q911.275 32.067 911.275 27.5299 Q911.275 22.8714 907.954 20.4004 Q904.673 17.8888 898.515 17.8888 Q895.153 17.8888 891.305 18.618 Q887.456 19.3471 882.838 20.8865 L882.838 13.5948 Q887.497 12.2985 891.548 11.6504 Q895.639 11.0023 899.244 11.0023 Q908.561 11.0023 913.99 15.2557 Q919.418 19.4686 919.418 26.6793 Q919.418 31.7024 916.542 35.1862 Q913.666 38.6294 908.359 39.9662 Z" fill="#000000" fill-rule="evenodd" fill-opacity="1" /><path clip-path="url(#clip200)" d="M 0 0 M937.161 18.8205 L937.161 65.8515 L947.045 65.8515 Q959.562 65.8515 965.355 60.1802 Q971.188 54.509 971.188 42.2752 Q971.188 30.1225 965.355 24.4918 Q959.562 18.8205 947.045 18.8205 L937.161 18.8205 M928.978 12.096 L945.789 12.096 Q963.37 12.096 971.593 19.4281 Q979.817 26.7198 979.817 42.2752 Q979.817 57.9117 971.553 65.2439 Q963.289 72.576 945.789 72.576 L928.978 72.576 L928.978 12.096 Z" fill="#000000" fill-rule="evenodd" fill-opacity="1" /><path clip-path="url(#clip200)" d="M 0 0 M1014.01 27.2059 L1021.46 27.2059 L1021.46 72.576 L1014.01 72.576 L1014.01 27.2059 M1014.01 9.54393 L1021.46 9.54393 L1021.46 18.9825 L1014.01 18.9825 L1014.01 9.54393 Z" fill="#000000" fill-rule="evenodd" fill-opacity="1" /><path clip-path="url(#clip200)" d="M 0 0 M1066.99 45.1919 L1066.99 72.576 L1059.54 72.576 L1059.54 45.4349 Q1059.54 38.994 1057.03 35.7938 Q1054.52 32.5936 1049.49 32.5936 Q1043.46 32.5936 1039.97 36.4419 Q1036.49 40.2903 1036.49 46.9338 L1036.49 72.576 L1028.99 72.576 L1028.99 27.2059 L1036.49 27.2059 L1036.49 34.2544 Q1039.16 30.163 1042.77 28.1376 Q1046.41 26.1121 1051.15 26.1121 Q1058.97 26.1121 1062.98 30.9732 Q1066.99 35.7938 1066.99 45.1919 Z" fill="#000000" fill-rule="evenodd" fill-opacity="1" /><path clip-path="url(#clip200)" d="M 0 0 M1082.02 65.7705 L1082.02 89.8329 L1074.53 89.8329 L1074.53 27.2059 L1082.02 27.2059 L1082.02 34.0924 Q1084.37 30.0415 1087.94 28.0971 Q1091.54 26.1121 1096.52 26.1121 Q1104.79 26.1121 1109.93 32.6746 Q1115.12 39.2371 1115.12 49.9314 Q1115.12 60.6258 1109.93 67.1883 Q1104.79 73.7508 1096.52 73.7508 Q1091.54 73.7508 1087.94 71.8063 Q1084.37 69.8214 1082.02 65.7705 M1107.38 49.9314 Q1107.38 41.7081 1103.98 37.0496 Q1100.61 32.3505 1094.7 32.3505 Q1088.79 32.3505 1085.38 37.0496 Q1082.02 41.7081 1082.02 49.9314 Q1082.02 58.1548 1085.38 62.8538 Q1088.79 67.5124 1094.7 67.5124 Q1100.61 67.5124 1103.98 62.8538 Q1107.38 58.1548 1107.38 49.9314 Z" fill="#000000" fill-rule="evenodd" fill-opacity="1" /><path clip-path="url(#clip200)" d="M 0 0 M1122.17 54.671 L1122.17 27.2059 L1129.62 27.2059 L1129.62 54.3874 Q1129.62 60.8284 1132.13 64.0691 Q1134.64 67.2693 1139.67 67.2693 Q1145.7 67.2693 1149.19 63.421 Q1152.71 59.5726 1152.71 52.9291 L1152.71 27.2059 L1160.16 27.2059 L1160.16 72.576 L1152.71 72.576 L1152.71 65.6084 Q1150 69.7404 1146.39 71.7658 Q1142.83 73.7508 1138.09 73.7508 Q1130.27 73.7508 1126.22 68.8897 Q1122.17 64.0286 1122.17 54.671 M1140.92 26.1121 L1140.92 26.1121 Z" fill="#000000" fill-rule="evenodd" fill-opacity="1" /><path clip-path="url(#clip200)" d="M 0 0 M1175.35 14.324 L1175.35 27.2059 L1190.71 27.2059 L1190.71 32.9987 L1175.35 32.9987 L1175.35 57.6282 Q1175.35 63.1779 1176.85 64.7578 Q1178.39 66.3376 1183.05 66.3376 L1190.71 66.3376 L1190.71 72.576 L1183.05 72.576 Q1174.42 72.576 1171.14 69.3758 Q1167.86 66.1351 1167.86 57.6282 L1167.86 32.9987 L1162.39 32.9987 L1162.39 27.2059 L1167.86 27.2059 L1167.86 14.324 L1175.35 14.324 Z" fill="#000000" fill-rule="evenodd" fill-opacity="1" /><path clip-path="url(#clip200)" d="M 0 0 M1232.27 14.324 L1232.27 27.2059 L1247.62 27.2059 L1247.62 32.9987 L1232.27 32.9987 L1232.27 57.6282 Q1232.27 63.1779 1233.77 64.7578 Q1235.31 66.3376 1239.97 66.3376 L1247.62 66.3376 L1247.62 72.576 L1239.97 72.576 Q1231.34 72.576 1228.06 69.3758 Q1224.77 66.1351 1224.77 57.6282 L1224.77 32.9987 L1219.31 32.9987 L1219.31 27.2059 L1224.77 27.2059 L1224.77 14.324 L1232.27 14.324 Z" fill="#000000" fill-rule="evenodd" fill-opacity="1" /><path clip-path="url(#clip200)" d="M 0 0 M1273.02 32.4315 Q1267.03 32.4315 1263.54 37.1306 Q1260.06 41.7891 1260.06 49.9314 Q1260.06 58.0738 1263.5 62.7728 Q1266.99 67.4314 1273.02 67.4314 Q1278.98 67.4314 1282.46 62.7323 Q1285.94 58.0333 1285.94 49.9314 Q1285.94 41.8701 1282.46 37.1711 Q1278.98 32.4315 1273.02 32.4315 M1273.02 26.1121 Q1282.74 26.1121 1288.29 32.4315 Q1293.84 38.7509 1293.84 49.9314 Q1293.84 61.0714 1288.29 67.4314 Q1282.74 73.7508 1273.02 73.7508 Q1263.26 73.7508 1257.71 67.4314 Q1252.2 61.0714 1252.2 49.9314 Q1252.2 38.7509 1257.71 32.4315 Q1263.26 26.1121 1273.02 26.1121 Z" fill="#000000" fill-rule="evenodd" fill-opacity="1" /><path clip-path="url(#clip200)" d="M 0 0 M1336.54 18.8205 L1336.54 41.5461 L1346.83 41.5461 Q1352.54 41.5461 1355.66 38.5889 Q1358.78 35.6318 1358.78 30.163 Q1358.78 24.7348 1355.66 21.7777 Q1352.54 18.8205 1346.83 18.8205 L1336.54 18.8205 M1328.36 12.096 L1346.83 12.096 Q1357 12.096 1362.18 16.714 Q1367.41 21.2916 1367.41 30.163 Q1367.41 39.1155 1362.18 43.6931 Q1357 48.2706 1346.83 48.2706 L1336.54 48.2706 L1336.54 72.576 L1328.36 72.576 L1328.36 12.096 Z" fill="#000000" fill-rule="evenodd" fill-opacity="1" /><path clip-path="url(#clip200)" d="M 0 0 M1412.94 45.1919 L1412.94 72.576 L1405.49 72.576 L1405.49 45.4349 Q1405.49 38.994 1402.97 35.7938 Q1400.46 32.5936 1395.44 32.5936 Q1389.4 32.5936 1385.92 36.4419 Q1382.44 40.2903 1382.44 46.9338 L1382.44 72.576 L1374.94 72.576 L1374.94 9.54393 L1382.44 9.54393 L1382.44 34.2544 Q1385.11 30.163 1388.72 28.1376 Q1392.36 26.1121 1397.1 26.1121 Q1404.92 26.1121 1408.93 30.9732 Q1412.94 35.7938 1412.94 45.1919 Z" fill="#000000" fill-rule="evenodd" fill-opacity="1" /><path clip-path="url(#clip200)" d="M 0 0 M1441.38 49.7694 Q1432.34 49.7694 1428.86 51.8354 Q1425.38 53.9013 1425.38 58.8839 Q1425.38 62.8538 1427.97 65.2034 Q1430.6 67.5124 1435.1 67.5124 Q1441.3 67.5124 1445.02 63.1374 Q1448.79 58.7219 1448.79 51.4303 L1448.79 49.7694 L1441.38 49.7694 M1456.24 46.6907 L1456.24 72.576 L1448.79 72.576 L1448.79 65.6895 Q1446.24 69.8214 1442.43 71.8063 Q1438.62 73.7508 1433.11 73.7508 Q1426.15 73.7508 1422.01 69.8619 Q1417.92 65.9325 1417.92 59.3701 Q1417.92 51.7138 1423.03 47.825 Q1428.17 43.9361 1438.34 43.9361 L1448.79 43.9361 L1448.79 43.2069 Q1448.79 38.0623 1445.39 35.2672 Q1442.02 32.4315 1435.91 32.4315 Q1432.02 32.4315 1428.33 33.3632 Q1424.65 34.295 1421.24 36.1584 L1421.24 29.2718 Q1425.34 27.692 1429.18 26.9223 Q1433.03 26.1121 1436.68 26.1121 Q1446.52 26.1121 1451.38 31.2163 Q1456.24 36.3204 1456.24 46.6907 Z" fill="#000000" fill-rule="evenodd" fill-opacity="1" /><path clip-path="url(#clip200)" d="M 0 0 M1492.99 28.5427 L1492.99 35.5912 Q1489.83 33.9709 1486.42 33.1607 Q1483.02 32.3505 1479.37 32.3505 Q1473.82 32.3505 1471.03 34.0519 Q1468.27 35.7533 1468.27 39.156 Q1468.27 41.7486 1470.26 43.2475 Q1472.24 44.7058 1478.24 46.0426 L1480.79 46.6097 Q1488.73 48.3111 1492.05 51.4303 Q1495.42 54.509 1495.42 60.0587 Q1495.42 66.3781 1490.39 70.0644 Q1485.41 73.7508 1476.66 73.7508 Q1473.01 73.7508 1469.04 73.0216 Q1465.12 72.3329 1460.74 70.9151 L1460.74 63.2184 Q1464.87 65.3654 1468.88 66.4591 Q1472.89 67.5124 1476.82 67.5124 Q1482.09 67.5124 1484.92 65.73 Q1487.76 63.9071 1487.76 60.6258 Q1487.76 57.5877 1485.69 55.9673 Q1483.67 54.3469 1476.74 52.8481 L1474.15 52.2405 Q1467.22 50.7821 1464.14 47.7845 Q1461.06 44.7463 1461.06 39.4801 Q1461.06 33.0797 1465.6 29.5959 Q1470.14 26.1121 1478.48 26.1121 Q1482.62 26.1121 1486.26 26.7198 Q1489.91 27.3274 1492.99 28.5427 Z" fill="#000000" fill-rule="evenodd" fill-opacity="1" /><path clip-path="url(#clip200)" d="M 0 0 M1542.04 48.0275 L1542.04 51.6733 L1507.77 51.6733 Q1508.26 59.3701 1512.39 63.421 Q1516.56 67.4314 1523.97 67.4314 Q1528.27 67.4314 1532.28 66.3781 Q1536.33 65.3249 1540.3 63.2184 L1540.3 70.267 Q1536.29 71.9684 1532.08 72.8596 Q1527.86 73.7508 1523.53 73.7508 Q1512.67 73.7508 1506.31 67.4314 Q1499.99 61.1119 1499.99 50.3365 Q1499.99 39.1965 1505.99 32.6746 Q1512.02 26.1121 1522.23 26.1121 Q1531.39 26.1121 1536.69 32.0264 Q1542.04 37.9003 1542.04 48.0275 M1534.59 45.84 Q1534.51 39.7232 1531.14 36.0774 Q1527.82 32.4315 1522.31 32.4315 Q1516.08 32.4315 1512.31 35.9558 Q1508.58 39.4801 1508.01 45.8805 L1534.59 45.84 Z" fill="#000000" fill-rule="evenodd" fill-opacity="1" /><path clip-path="url(#clip200)" d="M 0 0 M1550.18 12.096 L1588.42 12.096 L1588.42 18.9825 L1558.37 18.9825 L1558.37 36.8875 L1587.17 36.8875 L1587.17 43.7741 L1558.37 43.7741 L1558.37 65.6895 L1589.15 65.6895 L1589.15 72.576 L1550.18 72.576 L1550.18 12.096 Z" fill="#000000" fill-rule="evenodd" fill-opacity="1" /><path clip-path="url(#clip200)" d="M 0 0 M1601.43 49.9314 Q1601.43 58.1548 1604.79 62.8538 Q1608.19 67.5124 1614.11 67.5124 Q1620.02 67.5124 1623.42 62.8538 Q1626.83 58.1548 1626.83 49.9314 Q1626.83 41.7081 1623.42 37.0496 Q1620.02 32.3505 1614.11 32.3505 Q1608.19 32.3505 1604.79 37.0496 Q1601.43 41.7081 1601.43 49.9314 M1626.83 65.7705 Q1624.48 69.8214 1620.87 71.8063 Q1617.31 73.7508 1612.28 73.7508 Q1604.06 73.7508 1598.88 67.1883 Q1593.73 60.6258 1593.73 49.9314 Q1593.73 39.2371 1598.88 32.6746 Q1604.06 26.1121 1612.28 26.1121 Q1617.31 26.1121 1620.87 28.0971 Q1624.48 30.0415 1626.83 34.0924 L1626.83 27.2059 L1634.28 27.2059 L1634.28 89.8329 L1626.83 89.8329 L1626.83 65.7705 Z" fill="#000000" fill-rule="evenodd" fill-opacity="1" /><path clip-path="url(#clip200)" d="M 0 0 M1641.33 54.671 L1641.33 27.2059 L1648.78 27.2059 L1648.78 54.3874 Q1648.78 60.8284 1651.29 64.0691 Q1653.81 67.2693 1658.83 67.2693 Q1664.87 67.2693 1668.35 63.421 Q1671.87 59.5726 1671.87 52.9291 L1671.87 27.2059 L1679.33 27.2059 L1679.33 72.576 L1671.87 72.576 L1671.87 65.6084 Q1669.16 69.7404 1665.55 71.7658 Q1661.99 73.7508 1657.25 73.7508 Q1649.43 73.7508 1645.38 68.8897 Q1641.33 64.0286 1641.33 54.671 M1660.09 26.1121 L1660.09 26.1121 Z" fill="#000000" fill-rule="evenodd" fill-opacity="1" /><path clip-path="url(#clip200)" d="M 0 0 M1687.15 27.2059 L1694.6 27.2059 L1694.6 72.576 L1687.15 72.576 L1687.15 27.2059 M1687.15 9.54393 L1694.6 9.54393 L1694.6 18.9825 L1687.15 18.9825 L1687.15 9.54393 Z" fill="#000000" fill-rule="evenodd" fill-opacity="1" /><path clip-path="url(#clip200)" d="M 0 0 M1702.42 9.54393 L1709.87 9.54393 L1709.87 72.576 L1702.42 72.576 L1702.42 9.54393 Z" fill="#000000" fill-rule="evenodd" fill-opacity="1" /><circle clip-path="url(#clip202)" cx="238.13" cy="905.248" r="25" fill="#0000ff" fill-rule="evenodd" fill-opacity="1" stroke="#000000" stroke-opacity="1" stroke-width="3.2"/>
<circle clip-path="url(#clip202)" cx="282.552" cy="781.74" r="25" fill="#0000ff" fill-rule="evenodd" fill-opacity="1" stroke="#000000" stroke-opacity="1" stroke-width="3.2"/>
<circle clip-path="url(#clip202)" cx="1127.21" cy="574.098" r="25" fill="#0000ff" fill-rule="evenodd" fill-opacity="1" stroke="#000000" stroke-opacity="1" stroke-width="3.2"/>
<circle clip-path="url(#clip202)" cx="1296.33" cy="576.627" r="25" fill="#0000ff" fill-rule="evenodd" fill-opacity="1" stroke="#000000" stroke-opacity="1" stroke-width="3.2"/>
<circle clip-path="url(#clip202)" cx="1409.45" cy="384.389" r="25" fill="#0000ff" fill-rule="evenodd" fill-opacity="1" stroke="#000000" stroke-opacity="1" stroke-width="3.2"/>
<circle clip-path="url(#clip202)" cx="366.988" cy="425.748" r="25" fill="#0000ff" fill-rule="evenodd" fill-opacity="1" stroke="#000000" stroke-opacity="1" stroke-width="3.2"/>
<circle clip-path="url(#clip202)" cx="1459.01" cy="259.353" r="25" fill="#0000ff" fill-rule="evenodd" fill-opacity="1" stroke="#000000" stroke-opacity="1" stroke-width="3.2"/>
<circle clip-path="url(#clip202)" cx="367.357" cy="315.349" r="25" fill="#0000ff" fill-rule="evenodd" fill-opacity="1" stroke="#000000" stroke-opacity="1" stroke-width="3.2"/>
<circle clip-path="url(#clip202)" cx="396.558" cy="306.659" r="25" fill="#0000ff" fill-rule="evenodd" fill-opacity="1" stroke="#000000" stroke-opacity="1" stroke-width="3.2"/>
<circle clip-path="url(#clip202)" cx="913.092" cy="205.805" r="25" fill="#0000ff" fill-rule="evenodd" fill-opacity="1" stroke="#000000" stroke-opacity="1" stroke-width="3.2"/>
<circle clip-path="url(#clip202)" cx="1209.5" cy="170.456" r="25" fill="#0000ff" fill-rule="evenodd" fill-opacity="1" stroke="#000000" stroke-opacity="1" stroke-width="3.2"/>
<path clip-path="url(#clip200)" d="
M1732.66 287.756 L2282.27 287.756 L2282.27 166.796 L1732.66 166.796  Z
  " fill="#ffffff" fill-rule="evenodd" fill-opacity="1"/>
<polyline clip-path="url(#clip200)" style="stroke:#000000; stroke-width:4; stroke-opacity:1; fill:none" points="
  1732.66,287.756 2282.27,287.756 2282.27,166.796 1732.66,166.796 1732.66,287.756 
  "/>
<circle clip-path="url(#clip200)" cx="1826.64" cy="227.276" r="23" fill="#0000ff" fill-rule="evenodd" fill-opacity="1" stroke="#000000" stroke-opacity="1" stroke-width="2.92571"/>
<path clip-path="url(#clip200)" d="M 0 0 M1942.34 228.908 L1942.34 244.556 L1938.08 244.556 L1938.08 229.047 Q1938.08 225.366 1936.64 223.537 Q1935.21 221.709 1932.34 221.709 Q1928.89 221.709 1926.9 223.908 Q1924.91 226.107 1924.91 229.903 L1924.91 244.556 L1920.63 244.556 L1920.63 218.63 L1924.91 218.63 L1924.91 222.658 Q1926.44 220.32 1928.5 219.162 Q1930.58 218.005 1933.29 218.005 Q1937.76 218.005 1940.05 220.783 Q1942.34 223.537 1942.34 228.908 Z" fill="#000000" fill-rule="evenodd" fill-opacity="1" /><path clip-path="url(#clip200)" d="M 0 0 M1956.85 221.616 Q1953.43 221.616 1951.44 224.301 Q1949.44 226.963 1949.44 231.616 Q1949.44 236.269 1951.41 238.954 Q1953.4 241.616 1956.85 241.616 Q1960.26 241.616 1962.25 238.931 Q1964.24 236.246 1964.24 231.616 Q1964.24 227.01 1962.25 224.324 Q1960.26 221.616 1956.85 221.616 M1956.85 218.005 Q1962.41 218.005 1965.58 221.616 Q1968.75 225.227 1968.75 231.616 Q1968.75 237.982 1965.58 241.616 Q1962.41 245.227 1956.85 245.227 Q1951.27 245.227 1948.1 241.616 Q1944.95 237.982 1944.95 231.616 Q1944.95 225.227 1948.1 221.616 Q1951.27 218.005 1956.85 218.005 Z" fill="#000000" fill-rule="evenodd" fill-opacity="1" /><path clip-path="url(#clip200)" d="M 0 0 M1994.77 228.908 L1994.77 244.556 L1990.51 244.556 L1990.51 229.047 Q1990.51 225.366 1989.07 223.537 Q1987.64 221.709 1984.77 221.709 Q1981.32 221.709 1979.33 223.908 Q1977.34 226.107 1977.34 229.903 L1977.34 244.556 L1973.06 244.556 L1973.06 218.63 L1977.34 218.63 L1977.34 222.658 Q1978.87 220.32 1980.93 219.162 Q1983.01 218.005 1985.72 218.005 Q1990.19 218.005 1992.48 220.783 Q1994.77 223.537 1994.77 228.908 Z" fill="#000000" fill-rule="evenodd" fill-opacity="1" /><path clip-path="url(#clip200)" d="M 0 0 M1997.08 229.672 L2009.56 229.672 L2009.56 233.468 L1997.08 233.468 L1997.08 229.672 Z" fill="#000000" fill-rule="evenodd" fill-opacity="1" /><path clip-path="url(#clip200)" d="M 0 0 M2032.69 219.625 L2032.69 223.607 Q2030.88 222.611 2029.05 222.125 Q2027.25 221.616 2025.39 221.616 Q2021.25 221.616 2018.96 224.255 Q2016.67 226.871 2016.67 231.616 Q2016.67 236.361 2018.96 239 Q2021.25 241.616 2025.39 241.616 Q2027.25 241.616 2029.05 241.13 Q2030.88 240.621 2032.69 239.625 L2032.69 243.56 Q2030.9 244.394 2028.98 244.81 Q2027.08 245.227 2024.93 245.227 Q2019.07 245.227 2015.63 241.546 Q2012.18 237.866 2012.18 231.616 Q2012.18 225.273 2015.65 221.639 Q2019.14 218.005 2025.21 218.005 Q2027.18 218.005 2029.05 218.422 Q2030.93 218.815 2032.69 219.625 Z" fill="#000000" fill-rule="evenodd" fill-opacity="1" /><path clip-path="url(#clip200)" d="M 0 0 M2047.2 221.616 Q2043.77 221.616 2041.78 224.301 Q2039.79 226.963 2039.79 231.616 Q2039.79 236.269 2041.76 238.954 Q2043.75 241.616 2047.2 241.616 Q2050.6 241.616 2052.59 238.931 Q2054.58 236.246 2054.58 231.616 Q2054.58 227.01 2052.59 224.324 Q2050.6 221.616 2047.2 221.616 M2047.2 218.005 Q2052.75 218.005 2055.93 221.616 Q2059.1 225.227 2059.1 231.616 Q2059.1 237.982 2055.93 241.616 Q2052.75 245.227 2047.2 245.227 Q2041.62 245.227 2038.45 241.616 Q2035.3 237.982 2035.3 231.616 Q2035.3 225.227 2038.45 221.616 Q2041.62 218.005 2047.2 218.005 Z" fill="#000000" fill-rule="evenodd" fill-opacity="1" /><path clip-path="url(#clip200)" d="M 0 0 M2085.12 228.908 L2085.12 244.556 L2080.86 244.556 L2080.86 229.047 Q2080.86 225.366 2079.42 223.537 Q2077.99 221.709 2075.12 221.709 Q2071.67 221.709 2069.68 223.908 Q2067.68 226.107 2067.68 229.903 L2067.68 244.556 L2063.4 244.556 L2063.4 218.63 L2067.68 218.63 L2067.68 222.658 Q2069.21 220.32 2071.27 219.162 Q2073.36 218.005 2076.06 218.005 Q2080.53 218.005 2082.82 220.783 Q2085.12 223.537 2085.12 228.908 Z" fill="#000000" fill-rule="evenodd" fill-opacity="1" /><path clip-path="url(#clip200)" d="M 0 0 M2086.53 218.63 L2091.04 218.63 L2099.14 240.389 L2107.24 218.63 L2111.76 218.63 L2102.04 244.556 L2096.25 244.556 L2086.53 218.63 Z" fill="#000000" fill-rule="evenodd" fill-opacity="1" /><path clip-path="url(#clip200)" d="M 0 0 M2138.4 230.528 L2138.4 232.611 L2118.82 232.611 Q2119.1 237.009 2121.46 239.324 Q2123.84 241.616 2128.08 241.616 Q2130.53 241.616 2132.82 241.014 Q2135.14 240.412 2137.41 239.209 L2137.41 243.236 Q2135.12 244.208 2132.71 244.718 Q2130.3 245.227 2127.82 245.227 Q2121.62 245.227 2117.99 241.616 Q2114.37 238.005 2114.37 231.847 Q2114.37 225.482 2117.8 221.755 Q2121.25 218.005 2127.08 218.005 Q2132.31 218.005 2135.35 221.385 Q2138.4 224.741 2138.4 230.528 M2134.14 229.278 Q2134.1 225.783 2132.18 223.699 Q2130.28 221.616 2127.13 221.616 Q2123.56 221.616 2121.41 223.63 Q2119.28 225.644 2118.96 229.301 L2134.14 229.278 Z" fill="#000000" fill-rule="evenodd" fill-opacity="1" /><path clip-path="url(#clip200)" d="M 0 0 M2157.89 222.611 Q2157.18 222.195 2156.32 222.01 Q2155.49 221.801 2154.47 221.801 Q2150.86 221.801 2148.91 224.162 Q2146.99 226.5 2146.99 230.898 L2146.99 244.556 L2142.71 244.556 L2142.71 218.63 L2146.99 218.63 L2146.99 222.658 Q2148.33 220.297 2150.49 219.162 Q2152.64 218.005 2155.72 218.005 Q2156.16 218.005 2156.69 218.074 Q2157.22 218.121 2157.87 218.236 L2157.89 222.611 Z" fill="#000000" fill-rule="evenodd" fill-opacity="1" /><path clip-path="url(#clip200)" d="M 0 0 M2178.59 231.292 Q2178.59 226.662 2176.67 224.116 Q2174.77 221.57 2171.32 221.57 Q2167.89 221.57 2165.97 224.116 Q2164.07 226.662 2164.07 231.292 Q2164.07 235.898 2165.97 238.445 Q2167.89 240.991 2171.32 240.991 Q2174.77 240.991 2176.67 238.445 Q2178.59 235.898 2178.59 231.292 M2182.85 241.338 Q2182.85 247.958 2179.91 251.176 Q2176.97 254.417 2170.9 254.417 Q2168.66 254.417 2166.67 254.07 Q2164.68 253.745 2162.8 253.051 L2162.8 248.908 Q2164.68 249.926 2166.5 250.412 Q2168.33 250.898 2170.23 250.898 Q2174.42 250.898 2176.5 248.699 Q2178.59 246.523 2178.59 242.102 L2178.59 239.996 Q2177.27 242.287 2175.21 243.421 Q2173.15 244.556 2170.28 244.556 Q2165.51 244.556 2162.59 240.921 Q2159.68 237.287 2159.68 231.292 Q2159.68 225.273 2162.59 221.639 Q2165.51 218.005 2170.28 218.005 Q2173.15 218.005 2175.21 219.139 Q2177.27 220.273 2178.59 222.565 L2178.59 218.63 L2182.85 218.63 L2182.85 241.338 Z" fill="#000000" fill-rule="evenodd" fill-opacity="1" /><path clip-path="url(#clip200)" d="M 0 0 M2209.49 230.528 L2209.49 232.611 L2189.91 232.611 Q2190.18 237.009 2192.55 239.324 Q2194.93 241.616 2199.17 241.616 Q2201.62 241.616 2203.91 241.014 Q2206.23 240.412 2208.49 239.209 L2208.49 243.236 Q2206.2 244.208 2203.8 244.718 Q2201.39 245.227 2198.91 245.227 Q2192.71 245.227 2189.07 241.616 Q2185.46 238.005 2185.46 231.847 Q2185.46 225.482 2188.89 221.755 Q2192.34 218.005 2198.17 218.005 Q2203.4 218.005 2206.43 221.385 Q2209.49 224.741 2209.49 230.528 M2205.23 229.278 Q2205.18 225.783 2203.26 223.699 Q2201.36 221.616 2198.22 221.616 Q2194.65 221.616 2192.5 223.63 Q2190.37 225.644 2190.05 229.301 L2205.23 229.278 Z" fill="#000000" fill-rule="evenodd" fill-opacity="1" /><path clip-path="url(#clip200)" d="M 0 0 M2231.02 222.565 L2231.02 208.537 L2235.28 208.537 L2235.28 244.556 L2231.02 244.556 L2231.02 240.667 Q2229.67 242.982 2227.61 244.116 Q2225.58 245.227 2222.71 245.227 Q2218.01 245.227 2215.05 241.477 Q2212.11 237.727 2212.11 231.616 Q2212.11 225.505 2215.05 221.755 Q2218.01 218.005 2222.71 218.005 Q2225.58 218.005 2227.61 219.139 Q2229.67 220.25 2231.02 222.565 M2216.5 231.616 Q2216.5 236.315 2218.42 239 Q2220.37 241.662 2223.75 241.662 Q2227.13 241.662 2229.07 239 Q2231.02 236.315 2231.02 231.616 Q2231.02 226.917 2229.07 224.255 Q2227.13 221.57 2223.75 221.57 Q2220.37 221.57 2218.42 224.255 Q2216.5 226.917 2216.5 231.616 Z" fill="#000000" fill-rule="evenodd" fill-opacity="1" /></svg>
